MozillaHeadline-ExtraLight.ufo
<glyph name="ampersand" format="1">
  <advance width="685.56034"/>
  <unicode hex="0026"/>
  <outline>
    <contour>
      <point x="202" y="424" type="curve" smooth="yes"/>
      <point x="526" y="0" type="line"/>
      <point x="646" y="0" type="line"/>
      <point x="646" y="53" type="line"/>
      <point x="564" y="53" type="line"/>
      <point x="255" y="457" type="line" smooth="yes"/>
      <point x="210" y="509"/>
      <point x="196" y="536"/>
      <point x="196" y="567" type="curve" smooth="yes"/>
      <point x="196" y="613"/>
      <point x="225" y="637"/>
      <point x="279" y="637" type="curve" smooth="yes"/>
      <point x="460" y="637" type="line"/>
      <point x="460" y="494" type="line"/>
      <point x="515" y="494" type="line"/>
      <point x="515" y="690" type="line"/>
      <point x="275" y="690" type="line" smooth="yes"/>
      <point x="184" y="690"/>
      <point x="135" y="647"/>
      <point x="135" y="567" type="curve" smooth="yes"/>
      <point x="135" y="520"/>
      <point x="154" y="478"/>
    </contour>
    <contour>
      <point x="268" y="-10" type="curve" smooth="yes"/>
      <point x="352" y="-10"/>
      <point x="414" y="18"/>
      <point x="445" y="71" type="curve"/>
      <point x="489" y="71" type="line"/>
      <point x="463" y="112" type="line"/>
      <point x="410" y="69"/>
      <point x="342" y="45"/>
      <point x="270" y="45" type="curve" smooth="yes"/>
      <point x="174" y="45"/>
      <point x="125" y="91"/>
      <point x="125" y="186" type="curve" smooth="yes"/>
      <point x="125" y="195" type="line" smooth="yes"/>
      <point x="125" y="283"/>
      <point x="172" y="326"/>
      <point x="269" y="335" type="curve"/>
      <point x="254" y="380" type="line"/>
      <point x="127" y="369"/>
      <point x="60" y="302"/>
      <point x="60" y="190" type="curve" smooth="yes"/>
      <point x="60" y="61"/>
      <point x="135" y="-10"/>
    </contour>
    <contour>
      <point x="510" y="118" type="line"/>
      <point x="562" y="149"/>
      <point x="563" y="218"/>
      <point x="563" y="286" type="curve" smooth="yes"/>
      <point x="563" y="376" type="line"/>
      <point x="508" y="376" type="line"/>
      <point x="508" y="154" type="line"/>
      <point x="470" y="154" type="line"/>
    </contour>
  </outline>
</glyph>
<glyph name="quotesingle" format="1">
  <advance width="211.51724"/>
  <unicode hex="0027"/>
  <outline>
    <contour>
      <point x="90" y="512" type="line"/>
      <point x="122" y="512" type="line"/>
      <point x="138" y="653" type="line"/>
      <point x="138" y="690" type="line"/>
      <point x="74" y="690" type="line"/>
      <point x="74" y="653" type="line"/>
    </contour>
  </outline>
</glyph>
<glyph name="parenleft" format="1">
  <advance width="305.83621"/>
  <unicode hex="0028"/>
  <outline>
    <contour>
      <point x="222" y="-92" type="curve"/>
      <point x="286" y="-92" type="line"/>
      <point x="163" y="45"/>
      <point x="122" y="152"/>
      <point x="122" y="319" type="curve" smooth="yes"/>
      <point x="122" y="371" type="line" smooth="yes"/>
      <point x="122" y="538"/>
      <point x="163" y="645"/>
      <point x="286" y="782" type="curve"/>
      <point x="222" y="782" type="line"/>
      <point x="109" y="668"/>
      <point x="60" y="536"/>
      <point x="60" y="345" type="curve" smooth="yes"/>
      <point x="60" y="154"/>
      <point x="109" y="22"/>
    </contour>
  </outline>
</glyph>
<glyph name="comma" format="1">
  <advance width="243.02586"/>
  <unicode hex="002C"/>
  <outline>
    <contour>
      <point x="76" y="-99" type="line"/>
      <point x="115" y="-99" type="line"/>
      <point x="163" y="0" type="line"/>
      <point x="163" y="80" type="line"/>
      <point x="80" y="80" type="line"/>
      <point x="80" y="0" type="line"/>
      <point x="121" y="0" type="line"/>
    </contour>
  </outline>
</glyph>
<glyph name="one" format="1">
  <advance width="463.75862"/>
  <unicode hex="0031"/>
  <outline>
    <contour>
      <point x="49" y="0" type="line"/>
      <point x="442" y="0" type="line"/>
      <point x="442" y="53" type="line"/>
      <point x="277" y="53" type="line"/>
      <point x="277" y="690" type="line"/>
      <point x="239" y="690" type="line"/>
      <point x="52" y="593" type="line"/>
      <point x="52" y="538" type="line"/>
      <point x="214" y="622" type="line"/>
      <point x="214" y="53" type="line"/>
      <point x="49" y="53" type="line"/>
    </contour>
  </outline>
</glyph>
<glyph name="three" format="1">
  <advance width="611.76724"/>
  <unicode hex="0033"/>
  <outline>
    <contour>
      <point x="301" y="-10" type="curve" smooth="yes"/>
      <point x="452" y="-10"/>
      <point x="543" y="62"/>
      <point x="543" y="190" type="curve" smooth="yes"/>
      <point x="543" y="279"/>
      <point x="502" y="331"/>
      <point x="432" y="341" type="curve"/>
      <point x="432" y="363" type="line"/>
      <point x="500" y="373"/>
      <point x="540" y="423"/>
      <point x="540" y="507" type="curve" smooth="yes"/>
      <point x="540" y="631"/>
      <point x="451" y="700"/>
      <point x="301" y="700" type="curve" smooth="yes"/>
      <point x="152" y="700"/>
      <point x="77" y="628"/>
      <point x="60" y="459" type="curve"/>
      <point x="124" y="459" type="line"/>
      <point x="124" y="468" type="line" smooth="yes"/>
      <point x="124" y="586"/>
      <point x="184" y="644"/>
      <point x="301" y="644" type="curve" smooth="yes"/>
      <point x="409" y="644"/>
      <point x="475" y="597"/>
      <point x="475" y="516" type="curve" smooth="yes"/>
      <point x="475" y="500" type="line" smooth="yes"/>
      <point x="475" y="420"/>
      <point x="434" y="377"/>
      <point x="357" y="377" type="curve" smooth="yes"/>
      <point x="211" y="377" type="line"/>
      <point x="211" y="327" type="line"/>
      <point x="358" y="327" type="line" smooth="yes"/>
      <point x="436" y="327"/>
      <point x="478" y="283"/>
      <point x="478" y="199" type="curve" smooth="yes"/>
      <point x="478" y="179" type="line" smooth="yes"/>
      <point x="478" y="95"/>
      <point x="411" y="46"/>
      <point x="301" y="46" type="curve" smooth="yes"/>
      <point x="183" y="46"/>
      <point x="122" y="104"/>
      <point x="122" y="222" type="curve" smooth="yes"/>
      <point x="122" y="231" type="line"/>
      <point x="57" y="231" type="line"/>
      <point x="75" y="61"/>
      <point x="151" y="-10"/>
    </contour>
  </outline>
</glyph>
<glyph name="seven" format="1">
  <advance width="545.46552"/>
  <unicode hex="0037"/>
  <outline>
    <contour>
      <point x="154" y="0" type="line"/>
      <point x="224" y="0" type="line"/>
      <point x="509" y="637" type="line"/>
      <point x="509" y="690" type="line"/>
      <point x="47" y="690" type="line"/>
      <point x="47" y="494" type="line"/>
      <point x="103" y="494" type="line"/>
      <point x="103" y="637" type="line"/>
      <point x="440" y="637" type="line"/>
    </contour>
  </outline>
</glyph>
<glyph name="nine" format="1">
  <advance width="621.37931"/>
  <unicode hex="0039"/>
  <outline>
    <contour>
      <point x="304" y="700" type="curve" smooth="yes"/>
      <point x="146" y="700"/>
      <point x="60" y="620"/>
      <point x="60" y="468" type="curve" smooth="yes"/>
      <point x="60" y="321"/>
      <point x="145" y="240"/>
      <point x="289" y="240" type="curve" smooth="yes"/>
      <point x="378" y="240"/>
      <point x="435" y="269"/>
      <point x="470" y="337" type="curve"/>
      <point x="491" y="337" type="line"/>
      <point x="487" y="290"/>
      <point x="484" y="261"/>
      <point x="484" y="236" type="curve" smooth="yes"/>
      <point x="484" y="233" type="line" smooth="yes"/>
      <point x="484" y="112"/>
      <point x="420" y="46"/>
      <point x="306" y="46" type="curve" smooth="yes"/>
      <point x="197" y="46"/>
      <point x="141" y="111"/>
      <point x="141" y="184" type="curve" smooth="yes"/>
      <point x="141" y="184" type="line"/>
      <point x="75" y="184" type="line"/>
      <point x="101" y="48"/>
      <point x="173" y="-10"/>
      <point x="306" y="-10" type="curve" smooth="yes"/>
      <point x="481" y="-10"/>
      <point x="555" y="91"/>
      <point x="555" y="345" type="curve" smooth="yes"/>
      <point x="555" y="601"/>
      <point x="481" y="700"/>
    </contour>
    <contour>
      <point x="302" y="644" type="curve" smooth="yes"/>
      <point x="414" y="644"/>
      <point x="476" y="586"/>
      <point x="476" y="474" type="curve" smooth="yes"/>
      <point x="476" y="464" type="line" smooth="yes"/>
      <point x="476" y="352"/>
      <point x="414" y="294"/>
      <point x="302" y="294" type="curve" smooth="yes"/>
      <point x="185" y="294"/>
      <point x="126" y="350"/>
      <point x="126" y="464" type="curve" smooth="yes"/>
      <point x="126" y="474" type="line" smooth="yes"/>
      <point x="126" y="588"/>
      <point x="185" y="644"/>
    </contour>
  </outline>
</glyph>
<glyph name="less" format="1">
  <advance width="474.58621"/>
  <unicode hex="003C"/>
  <outline>
    <contour>
      <point x="430" y="543" type="line"/>
      <point x="35" y="375" type="line"/>
      <point x="35" y="299" type="line"/>
      <point x="430" y="131" type="line"/>
      <point x="430" y="187" type="line"/>
      <point x="92" y="326" type="line"/>
      <point x="92" y="348" type="line"/>
      <point x="430" y="487" type="line"/>
    </contour>
  </outline>
</glyph>
<glyph name="at" format="1">
  <advance width="842.21552"/>
  <unicode hex="0040"/>
  <outline>
    <contour>
      <point x="419" y="-71" type="curve" smooth="yes"/>
      <point x="699" y="-71" type="line"/>
      <point x="699" y="-18" type="line"/>
      <point x="419" y="-18" type="line" smooth="yes"/>
      <point x="221" y="-18"/>
      <point x="115" y="89"/>
      <point x="115" y="289" type="curve" smooth="yes"/>
      <point x="115" y="320" type="line" smooth="yes"/>
      <point x="115" y="519"/>
      <point x="221" y="626"/>
      <point x="419" y="626" type="curve" smooth="yes"/>
      <point x="618" y="626"/>
      <point x="723" y="519"/>
      <point x="723" y="320" type="curve" smooth="yes"/>
      <point x="723" y="289" type="line" smooth="yes"/>
      <point x="723" y="175"/>
      <point x="691" y="114"/>
      <point x="630" y="114" type="curve" smooth="yes"/>
      <point x="597" y="114"/>
      <point x="582" y="132"/>
      <point x="582" y="171" type="curve" smooth="yes"/>
      <point x="582" y="363" type="line" smooth="yes"/>
      <point x="582" y="472"/>
      <point x="526" y="529"/>
      <point x="419" y="529" type="curve" smooth="yes"/>
      <point x="320" y="529"/>
      <point x="262" y="482"/>
      <point x="246" y="385" type="curve"/>
      <point x="307" y="385" type="line"/>
      <point x="307" y="386" type="line" smooth="yes"/>
      <point x="307" y="435"/>
      <point x="337" y="479"/>
      <point x="417" y="479" type="curve" smooth="yes"/>
      <point x="491" y="479"/>
      <point x="524" y="443"/>
      <point x="524" y="359" type="curve" smooth="yes"/>
      <point x="524" y="313" type="line"/>
      <point x="524" y="302" type="line"/>
      <point x="524" y="227" type="line" smooth="yes"/>
      <point x="524" y="152"/>
      <point x="480" y="114"/>
      <point x="400" y="114" type="curve" smooth="yes"/>
      <point x="332" y="114"/>
      <point x="296" y="141"/>
      <point x="296" y="194" type="curve" smooth="yes"/>
      <point x="296" y="196" type="line" smooth="yes"/>
      <point x="296" y="246"/>
      <point x="327" y="272"/>
      <point x="406" y="279" type="curve" smooth="yes"/>
      <point x="524" y="291" type="line"/>
      <point x="524" y="333" type="line"/>
      <point x="391" y="320" type="line" smooth="yes"/>
      <point x="288" y="310"/>
      <point x="235" y="266"/>
      <point x="235" y="187" type="curve" smooth="yes"/>
      <point x="235" y="109"/>
      <point x="290" y="64"/>
      <point x="380" y="64" type="curve" smooth="yes"/>
      <point x="446" y="64"/>
      <point x="489" y="86"/>
      <point x="516" y="142" type="curve"/>
      <point x="535" y="142" type="line"/>
      <point x="538" y="92"/>
      <point x="572" y="64"/>
      <point x="628" y="64" type="curve" smooth="yes"/>
      <point x="726" y="64"/>
      <point x="781" y="151"/>
      <point x="781" y="304" type="curve" smooth="yes"/>
      <point x="781" y="541"/>
      <point x="647" y="679"/>
      <point x="419" y="679" type="curve" smooth="yes"/>
      <point x="192" y="679"/>
      <point x="57" y="541"/>
      <point x="57" y="304" type="curve" smooth="yes"/>
      <point x="57" y="67"/>
      <point x="192" y="-71"/>
    </contour>
  </outline>
</glyph>
<glyph name="C" format="1">
  <advance width="668.93966"/>
  <unicode hex="0043"/>
  <outline>
    <contour>
      <point x="340" y="-10" type="curve" smooth="yes"/>
      <point x="495" y="-10"/>
      <point x="589" y="77"/>
      <point x="610" y="245" type="curve"/>
      <point x="543" y="245" type="line"/>
      <point x="543" y="233" type="line" smooth="yes"/>
      <point x="543" y="129"/>
      <point x="481" y="47"/>
      <point x="340" y="47" type="curve" smooth="yes"/>
      <point x="196" y="47"/>
      <point x="129" y="127"/>
      <point x="129" y="302" type="curve" smooth="yes"/>
      <point x="129" y="388" type="line" smooth="yes"/>
      <point x="129" y="563"/>
      <point x="196" y="643"/>
      <point x="340" y="643" type="curve" smooth="yes"/>
      <point x="481" y="643"/>
      <point x="543" y="564"/>
      <point x="543" y="463" type="curve" smooth="yes"/>
      <point x="543" y="453" type="line"/>
      <point x="609" y="453" type="line"/>
      <point x="586" y="616"/>
      <point x="492" y="700"/>
      <point x="340" y="700" type="curve" smooth="yes"/>
      <point x="161" y="700"/>
      <point x="61" y="582"/>
      <point x="61" y="345" type="curve" smooth="yes"/>
      <point x="61" y="108"/>
      <point x="161" y="-10"/>
    </contour>
    <contour>
      <point x="340" y="0" type="move" name="bottom"/>
    </contour>
    <contour>
      <point x="340" y="690" type="move" name="top"/>
    </contour>
  </outline>
</glyph>
<glyph name="D" format="1">
  <advance width="686.93966"/>
  <unicode hex="0044"/>
  <outline>
    <contour>
      <point x="109" y="0" type="line"/>
      <point x="348" y="0" type="line" smooth="yes"/>
      <point x="533" y="0"/>
      <point x="625" y="104"/>
      <point x="625" y="345" type="curve" smooth="yes"/>
      <point x="625" y="586"/>
      <point x="533" y="690"/>
      <point x="348" y="690" type="curve" smooth="yes"/>
      <point x="18" y="690" type="line"/>
      <point x="18" y="637" type="line"/>
      <point x="109" y="637" type="line"/>
    </contour>
    <contour>
      <point x="342" y="53" type="curve" smooth="yes"/>
      <point x="173" y="53" type="line"/>
      <point x="173" y="637" type="line"/>
      <point x="342" y="637" type="line" smooth="yes"/>
      <point x="489" y="637"/>
      <point x="557" y="564"/>
      <point x="557" y="388" type="curve" smooth="yes"/>
      <point x="557" y="302" type="line" smooth="yes"/>
      <point x="557" y="126"/>
      <point x="489" y="53"/>
    </contour>
  </outline>
</glyph>
<glyph name="E" format="1">
  <advance width="606.33621"/>
  <unicode hex="0045"/>
  <outline>
    <contour>
      <point x="484" y="494" type="line"/>
      <point x="539" y="494" type="line"/>
      <point x="539" y="690" type="line"/>
      <point x="17" y="690" type="line"/>
      <point x="17" y="637" type="line"/>
      <point x="108" y="637" type="line"/>
      <point x="108" y="0" type="line"/>
      <point x="543" y="0" type="line"/>
      <point x="543" y="200" type="line"/>
      <point x="488" y="200" type="line"/>
      <point x="488" y="53" type="line"/>
      <point x="172" y="53" type="line"/>
      <point x="172" y="327" type="line"/>
      <point x="443" y="327" type="line"/>
      <point x="443" y="377" type="line"/>
      <point x="172" y="377" type="line"/>
      <point x="172" y="637" type="line"/>
      <point x="484" y="637" type="line"/>
    </contour>
    <contour>
      <point x="543" y="0" type="move" name="ogonek"/>
    </contour>
    <contour>
      <point x="305" y="690" type="move" name="top"/>
    </contour>
  </outline>
</glyph>
<glyph name="G" format="1">
  <advance width="692.34483"/>
  <unicode hex="0047"/>
  <outline>
    <contour>
      <point x="332" y="-10" type="curve" smooth="yes"/>
      <point x="433" y="-10"/>
      <point x="503" y="30"/>
      <point x="542" y="111" type="curve"/>
      <point x="564" y="111" type="line"/>
      <point x="564" y="0" type="line"/>
      <point x="614" y="0" type="line"/>
      <point x="614" y="349" type="line"/>
      <point x="344" y="349" type="line"/>
      <point x="344" y="298" type="line"/>
      <point x="562" y="298" type="line"/>
      <point x="552" y="311" type="line"/>
      <point x="552" y="270" type="line" smooth="yes"/>
      <point x="552" y="127"/>
      <point x="485" y="47"/>
      <point x="340" y="47" type="curve" smooth="yes"/>
      <point x="196" y="47"/>
      <point x="128" y="127"/>
      <point x="128" y="302" type="curve" smooth="yes"/>
      <point x="128" y="388" type="line" smooth="yes"/>
      <point x="128" y="563"/>
      <point x="195" y="643"/>
      <point x="339" y="643" type="curve" smooth="yes"/>
      <point x="482" y="643"/>
      <point x="538" y="562"/>
      <point x="538" y="480" type="curve" smooth="yes"/>
      <point x="538" y="477" type="line"/>
      <point x="605" y="477" type="line"/>
      <point x="576" y="624"/>
      <point x="484" y="700"/>
      <point x="339" y="700" type="curve" smooth="yes"/>
      <point x="161" y="700"/>
      <point x="60" y="582"/>
      <point x="60" y="345" type="curve" smooth="yes"/>
      <point x="60" y="109"/>
      <point x="159" y="-10"/>
    </contour>
  </outline>
</glyph>
<glyph name="J" format="1">
  <advance width="588.87069"/>
  <unicode hex="004A"/>
  <outline>
    <contour>
      <point x="267" y="-10" type="curve" smooth="yes"/>
      <point x="424" y="-10"/>
      <point x="495" y="76"/>
      <point x="495" y="275" type="curve" smooth="yes"/>
      <point x="495" y="690" type="line"/>
      <point x="172" y="690" type="line"/>
      <point x="172" y="637" type="line"/>
      <point x="431" y="637" type="line"/>
      <point x="431" y="248" type="line" smooth="yes"/>
      <point x="431" y="103"/>
      <point x="385" y="47"/>
      <point x="267" y="47" type="curve" smooth="yes"/>
      <point x="149" y="47"/>
      <point x="103" y="103"/>
      <point x="103" y="243" type="curve" smooth="yes"/>
      <point x="103" y="285" type="line"/>
      <point x="39" y="285" type="line"/>
      <point x="39" y="265" type="line" smooth="yes"/>
      <point x="39" y="76"/>
      <point x="110" y="-10"/>
    </contour>
    <contour>
      <point x="349" y="690" type="move" name="top"/>
    </contour>
  </outline>
</glyph>
<glyph name="M" format="1">
  <advance width="891.18103"/>
  <unicode hex="004D"/>
  <outline>
    <contour>
      <point x="101" y="0" type="line"/>
      <point x="163" y="0" type="line"/>
      <point x="163" y="633" type="line"/>
      <point x="184" y="633" type="line"/>
      <point x="418" y="0" type="line"/>
      <point x="471" y="0" type="line"/>
      <point x="705" y="633" type="line"/>
      <point x="726" y="633" type="line"/>
      <point x="726" y="0" type="line"/>
      <point x="790" y="0" type="line"/>
      <point x="790" y="690" type="line"/>
      <point x="666" y="690" type="line"/>
      <point x="456" y="129" type="line"/>
      <point x="435" y="129" type="line"/>
      <point x="225" y="690" type="line"/>
      <point x="101" y="690" type="line"/>
    </contour>
  </outline>
</glyph>
<glyph name="N" format="1">
  <advance width="685.08621"/>
  <unicode hex="004E"/>
  <outline>
    <contour>
      <point x="109" y="0" type="line"/>
      <point x="171" y="0" type="line"/>
      <point x="171" y="492" type="line" smooth="yes"/>
      <point x="171" y="523"/>
      <point x="168" y="555"/>
      <point x="161" y="618" type="curve"/>
      <point x="182" y="618" type="line"/>
      <point x="524" y="0" type="line"/>
      <point x="584" y="0" type="line"/>
      <point x="584" y="690" type="line"/>
      <point x="522" y="690" type="line"/>
      <point x="522" y="283" type="line" smooth="yes"/>
      <point x="522" y="252"/>
      <point x="525" y="220"/>
      <point x="532" y="157" type="curve"/>
      <point x="511" y="157" type="line"/>
      <point x="208" y="690" type="line"/>
      <point x="18" y="690" type="line"/>
      <point x="18" y="637" type="line"/>
      <point x="109" y="637" type="line"/>
    </contour>
    <contour>
      <point x="347" y="690" type="move" name="top"/>
    </contour>
  </outline>
</glyph>
<glyph name="O" format="1">
  <advance width="691.06034"/>
  <unicode hex="004F"/>
  <outline>
    <contour>
      <point x="346" y="-10" type="curve" smooth="yes"/>
      <point x="529" y="-10"/>
      <point x="631" y="108"/>
      <point x="631" y="345" type="curve" smooth="yes"/>
      <point x="631" y="582"/>
      <point x="529" y="700"/>
      <point x="346" y="700" type="curve" smooth="yes"/>
      <point x="162" y="700"/>
      <point x="60" y="582"/>
      <point x="60" y="345" type="curve" smooth="yes"/>
      <point x="60" y="108"/>
      <point x="162" y="-10"/>
    </contour>
    <contour>
      <point x="346" y="47" type="curve" smooth="yes"/>
      <point x="197" y="47"/>
      <point x="128" y="127"/>
      <point x="128" y="303" type="curve" smooth="yes"/>
      <point x="128" y="387" type="line" smooth="yes"/>
      <point x="128" y="563"/>
      <point x="197" y="643"/>
      <point x="346" y="643" type="curve" smooth="yes"/>
      <point x="494" y="643"/>
      <point x="564" y="563"/>
      <point x="564" y="387" type="curve" smooth="yes"/>
      <point x="564" y="303" type="line" smooth="yes"/>
      <point x="564" y="127"/>
      <point x="494" y="47"/>
    </contour>
    <contour>
      <point x="344" y="690" type="move" name="top"/>
    </contour>
  </outline>
</glyph>
<glyph name="Q" format="1">
  <advance width="691.06034"/>
  <unicode hex="0051"/>
  <outline>
    <contour>
      <point x="362" y="-132" type="curve" smooth="yes"/>
      <point x="558" y="-132" type="line"/>
      <point x="558" y="-81" type="line"/>
      <point x="377" y="-81" type="line"/>
      <point x="377" y="-9" type="line"/>
      <point x="539" y="4"/>
      <point x="631" y="123"/>
      <point x="631" y="345" type="curve" smooth="yes"/>
      <point x="631" y="582"/>
      <point x="529" y="700"/>
      <point x="346" y="700" type="curve" smooth="yes"/>
      <point x="162" y="700"/>
      <point x="60" y="582"/>
      <point x="60" y="345" type="curve" smooth="yes"/>
      <point x="60" y="108"/>
      <point x="162" y="-10"/>
      <point x="346" y="-10" type="curve"/>
      <point x="315" y="24" type="line"/>
      <point x="315" y="-85" type="line" smooth="yes"/>
      <point x="315" y="-116"/>
      <point x="331" y="-132"/>
    </contour>
    <contour>
      <point x="346" y="47" type="curve" smooth="yes"/>
      <point x="197" y="47"/>
      <point x="128" y="127"/>
      <point x="128" y="303" type="curve" smooth="yes"/>
      <point x="128" y="387" type="line" smooth="yes"/>
      <point x="128" y="563"/>
      <point x="197" y="643"/>
      <point x="346" y="643" type="curve" smooth="yes"/>
      <point x="494" y="643"/>
      <point x="564" y="563"/>
      <point x="564" y="387" type="curve" smooth="yes"/>
      <point x="564" y="303" type="line" smooth="yes"/>
      <point x="564" y="127"/>
      <point x="494" y="47"/>
    </contour>
    <contour>
      <point x="346" y="690" type="move" name="top"/>
    </contour>
  </outline>
</glyph>
<glyph name="V" format="1">
  <advance width="624.96552"/>
  <unicode hex="0056"/>
  <outline>
    <contour>
      <point x="255" y="0" type="line"/>
      <point x="370" y="0" type="line"/>
      <point x="593" y="690" type="line"/>
      <point x="527" y="690" type="line"/>
      <point x="324" y="57" type="line"/>
      <point x="303" y="57" type="line"/>
      <point x="100" y="690" type="line"/>
      <point x="32" y="690" type="line"/>
    </contour>
  </outline>
</glyph>
<glyph name="X" format="1">
  <advance width="665.08621"/>
  <unicode hex="0058"/>
  <outline>
    <contour>
      <point x="34" y="0" type="line"/>
      <point x="170" y="0" type="line"/>
      <point x="321" y="326" type="line"/>
      <point x="342" y="326" type="line"/>
      <point x="494" y="0" type="line"/>
      <point x="632" y="0" type="line"/>
      <point x="632" y="53" type="line"/>
      <point x="540" y="53" type="line"/>
      <point x="389" y="376" type="line"/>
      <point x="390" y="339" type="line"/>
      <point x="533" y="637" type="line"/>
      <point x="625" y="637" type="line"/>
      <point x="625" y="690" type="line"/>
      <point x="489" y="690" type="line"/>
      <point x="344" y="382" type="line"/>
      <point x="323" y="382" type="line"/>
      <point x="178" y="690" type="line"/>
      <point x="40" y="690" type="line"/>
      <point x="40" y="637" type="line"/>
      <point x="132" y="637" type="line"/>
      <point x="276" y="339" type="line"/>
      <point x="277" y="376" type="line"/>
      <point x="125" y="53" type="line"/>
      <point x="34" y="53" type="line"/>
    </contour>
  </outline>
</glyph>
<glyph name="Z" format="1">
  <advance width="569.27586"/>
  <unicode hex="005A"/>
  <outline>
    <contour>
      <point x="47" y="0" type="line"/>
      <point x="523" y="0" type="line"/>
      <point x="523" y="53" type="line"/>
      <point x="124" y="53" type="line"/>
      <point x="520" y="637" type="line"/>
      <point x="520" y="690" type="line"/>
      <point x="49" y="690" type="line"/>
      <point x="49" y="637" type="line"/>
      <point x="443" y="637" type="line"/>
      <point x="47" y="53" type="line"/>
    </contour>
    <contour>
      <point x="285" y="690" type="move" name="top"/>
    </contour>
  </outline>
</glyph>
<glyph name="asciicircum" format="1">
  <advance width="474.58621"/>
  <unicode hex="005E"/>
  <outline>
    <contour>
      <point x="59" y="437" type="line"/>
      <point x="122" y="437" type="line"/>
      <point x="227" y="637" type="line"/>
      <point x="248" y="637" type="line"/>
      <point x="352" y="437" type="line"/>
      <point x="416" y="437" type="line"/>
      <point x="278" y="690" type="line"/>
      <point x="196" y="690" type="line"/>
    </contour>
  </outline>
</glyph>
<glyph name="a" format="1">
  <advance width="553.22414"/>
  <unicode hex="0061"/>
  <outline>
    <contour>
      <point x="228" y="-10" type="curve" smooth="yes"/>
      <point x="312" y="-10"/>
      <point x="361" y="19"/>
      <point x="393" y="82" type="curve"/>
      <point x="414" y="82" type="line"/>
      <point x="414" y="46" type="line" smooth="yes"/>
      <point x="414" y="16"/>
      <point x="430" y="0"/>
      <point x="460" y="0" type="curve" smooth="yes"/>
      <point x="543" y="0" type="line"/>
      <point x="543" y="51" type="line"/>
      <point x="464" y="51" type="line"/>
      <point x="464" y="347" type="line" smooth="yes"/>
      <point x="464" y="477"/>
      <point x="398" y="544"/>
      <point x="270" y="544" type="curve" smooth="yes"/>
      <point x="153" y="544"/>
      <point x="86" y="488"/>
      <point x="67" y="373" type="curve"/>
      <point x="131" y="373" type="line"/>
      <point x="131" y="373" type="line"/>
      <point x="131" y="435"/>
      <point x="169" y="489"/>
      <point x="269" y="489" type="curve" smooth="yes"/>
      <point x="362" y="489"/>
      <point x="402" y="444"/>
      <point x="402" y="341" type="curve" smooth="yes"/>
      <point x="402" y="289" type="line"/>
      <point x="402" y="277" type="line"/>
      <point x="402" y="186" type="line" smooth="yes"/>
      <point x="402" y="91"/>
      <point x="351" y="45"/>
      <point x="249" y="45" type="curve" smooth="yes"/>
      <point x="162" y="45"/>
      <point x="118" y="78"/>
      <point x="118" y="145" type="curve" smooth="yes"/>
      <point x="118" y="146" type="line" smooth="yes"/>
      <point x="118" y="209"/>
      <point x="162" y="240"/>
      <point x="258" y="249" type="curve" smooth="yes"/>
      <point x="402" y="263" type="line"/>
      <point x="402" y="310" type="line"/>
      <point x="242" y="294" type="line" smooth="yes"/>
      <point x="119" y="282"/>
      <point x="54" y="230"/>
      <point x="54" y="137" type="curve" smooth="yes"/>
      <point x="54" y="43"/>
      <point x="118" y="-10"/>
    </contour>
    <contour>
      <point x="543" y="0" type="move" name="ogonek"/>
    </contour>
    <contour>
      <point x="273" y="534" type="move" name="top"/>
    </contour>
  </outline>
</glyph>
<glyph name="d" format="1">
  <advance width="605.7069"/>
  <unicode hex="0064"/>
  <outline>
    <contour>
      <point x="272" y="-10" type="curve" smooth="yes"/>
      <point x="349" y="-10"/>
      <point x="401" y="23"/>
      <point x="438" y="93" type="curve"/>
      <point x="459" y="93" type="line"/>
      <point x="459" y="47" type="line" smooth="yes"/>
      <point x="459" y="16"/>
      <point x="476" y="0"/>
      <point x="506" y="0" type="curve" smooth="yes"/>
      <point x="588" y="0" type="line"/>
      <point x="588" y="51" type="line"/>
      <point x="509" y="51" type="line"/>
      <point x="509" y="690" type="line"/>
      <point x="353" y="690" type="line"/>
      <point x="353" y="639" type="line"/>
      <point x="447" y="639" type="line"/>
      <point x="447" y="571" type="line" smooth="yes"/>
      <point x="447" y="540"/>
      <point x="450" y="508"/>
      <point x="457" y="445" type="curve"/>
      <point x="436" y="445" type="line"/>
      <point x="400" y="513"/>
      <point x="349" y="544"/>
      <point x="272" y="544" type="curve" smooth="yes"/>
      <point x="137" y="544"/>
      <point x="57" y="446"/>
      <point x="57" y="267" type="curve" smooth="yes"/>
      <point x="57" y="88"/>
      <point x="137" y="-10"/>
    </contour>
    <contour>
      <point x="286" y="45" type="curve" smooth="yes"/>
      <point x="174" y="45"/>
      <point x="123" y="107"/>
      <point x="123" y="245" type="curve" smooth="yes"/>
      <point x="123" y="289" type="line" smooth="yes"/>
      <point x="123" y="427"/>
      <point x="174" y="489"/>
      <point x="286" y="489" type="curve" smooth="yes"/>
      <point x="397" y="489"/>
      <point x="447" y="427"/>
      <point x="447" y="289" type="curve" smooth="yes"/>
      <point x="447" y="245" type="line" smooth="yes"/>
      <point x="447" y="107"/>
      <point x="397" y="45"/>
    </contour>
  </outline>
</glyph>
<glyph name="m" format="1">
  <advance width="889.48276"/>
  <unicode hex="006D"/>
  <outline>
    <contour>
      <point x="415" y="335" type="curve" smooth="yes"/>
      <point x="415" y="0" type="line"/>
      <point x="477" y="0" type="line"/>
      <point x="477" y="335" type="line" smooth="yes"/>
      <point x="477" y="439"/>
      <point x="517" y="489"/>
      <point x="603" y="489" type="curve" smooth="yes"/>
      <point x="689" y="489"/>
      <point x="729" y="439"/>
      <point x="729" y="335" type="curve" smooth="yes"/>
      <point x="729" y="0" type="line"/>
      <point x="870" y="0" type="line"/>
      <point x="870" y="51" type="line"/>
      <point x="791" y="51" type="line"/>
      <point x="791" y="341" type="line" smooth="yes"/>
      <point x="791" y="475"/>
      <point x="735" y="544"/>
      <point x="629" y="544" type="curve" smooth="yes"/>
      <point x="554" y="544"/>
      <point x="511" y="515"/>
      <point x="481" y="452" type="curve"/>
      <point x="460" y="452" type="line"/>
      <point x="430" y="515"/>
      <point x="385" y="544"/>
      <point x="315" y="544" type="curve" smooth="yes"/>
      <point x="246" y="544"/>
      <point x="201" y="515"/>
      <point x="172" y="452" type="curve"/>
      <point x="150" y="452" type="line"/>
      <point x="150" y="534" type="line"/>
      <point x="22" y="534" type="line"/>
      <point x="22" y="483" type="line"/>
      <point x="101" y="483" type="line"/>
      <point x="101" y="0" type="line"/>
      <point x="162" y="0" type="line"/>
      <point x="162" y="335" type="line" smooth="yes"/>
      <point x="162" y="439"/>
      <point x="203" y="489"/>
      <point x="289" y="489" type="curve" smooth="yes"/>
      <point x="375" y="489"/>
      <point x="415" y="439"/>
    </contour>
  </outline>
</glyph>
<glyph name="n" format="1">
  <advance width="602.75"/>
  <unicode hex="006E"/>
  <outline>
    <contour>
      <point x="101" y="0" type="line"/>
      <point x="162" y="0" type="line"/>
      <point x="162" y="327" type="line" smooth="yes"/>
      <point x="162" y="440"/>
      <point x="205" y="489"/>
      <point x="303" y="489" type="curve" smooth="yes"/>
      <point x="400" y="489"/>
      <point x="443" y="440"/>
      <point x="443" y="327" type="curve" smooth="yes"/>
      <point x="443" y="0" type="line"/>
      <point x="583" y="0" type="line"/>
      <point x="583" y="51" type="line"/>
      <point x="504" y="51" type="line"/>
      <point x="504" y="341" type="line" smooth="yes"/>
      <point x="504" y="475"/>
      <point x="444" y="544"/>
      <point x="328" y="544" type="curve" smooth="yes"/>
      <point x="253" y="544"/>
      <point x="204" y="515"/>
      <point x="172" y="452" type="curve"/>
      <point x="150" y="452" type="line"/>
      <point x="150" y="534" type="line"/>
      <point x="22" y="534" type="line"/>
      <point x="22" y="483" type="line"/>
      <point x="101" y="483" type="line"/>
    </contour>
    <contour>
      <point x="305" y="534" type="move" name="top"/>
    </contour>
  </outline>
</glyph>
<glyph name="p" format="1">
  <advance width="609.93103"/>
  <unicode hex="0070"/>
  <outline>
    <contour>
      <point x="102" y="-132" type="line"/>
      <point x="163" y="-132" type="line"/>
      <point x="163" y="-37" type="line" smooth="yes"/>
      <point x="163" y="-6"/>
      <point x="160" y="26"/>
      <point x="153" y="89" type="curve"/>
      <point x="175" y="89" type="line"/>
      <point x="211" y="21"/>
      <point x="262" y="-10"/>
      <point x="339" y="-10" type="curve" smooth="yes"/>
      <point x="474" y="-10"/>
      <point x="553" y="88"/>
      <point x="553" y="267" type="curve" smooth="yes"/>
      <point x="553" y="446"/>
      <point x="474" y="544"/>
      <point x="339" y="544" type="curve" smooth="yes"/>
      <point x="262" y="544"/>
      <point x="210" y="511"/>
      <point x="173" y="441" type="curve"/>
      <point x="151" y="441" type="line"/>
      <point x="151" y="534" type="line"/>
      <point x="22" y="534" type="line"/>
      <point x="22" y="483" type="line"/>
      <point x="102" y="483" type="line"/>
    </contour>
    <contour>
      <point x="325" y="45" type="curve" smooth="yes"/>
      <point x="214" y="45"/>
      <point x="163" y="107"/>
      <point x="163" y="245" type="curve" smooth="yes"/>
      <point x="163" y="289" type="line" smooth="yes"/>
      <point x="163" y="427"/>
      <point x="214" y="489"/>
      <point x="325" y="489" type="curve" smooth="yes"/>
      <point x="437" y="489"/>
      <point x="488" y="427"/>
      <point x="488" y="289" type="curve" smooth="yes"/>
      <point x="488" y="245" type="line" smooth="yes"/>
      <point x="488" y="107"/>
      <point x="437" y="45"/>
    </contour>
  </outline>
</glyph>
<glyph name="q" format="1">
  <advance width="597.03448"/>
  <unicode hex="0071"/>
  <outline>
    <contour>
      <point x="446" y="-37" type="curve" smooth="yes"/>
      <point x="446" y="-132" type="line"/>
      <point x="589" y="-132" type="line"/>
      <point x="589" y="-80" type="line"/>
      <point x="508" y="-80" type="line"/>
      <point x="508" y="534" type="line"/>
      <point x="458" y="534" type="line"/>
      <point x="458" y="441" type="line"/>
      <point x="436" y="441" type="line"/>
      <point x="399" y="511"/>
      <point x="347" y="544"/>
      <point x="270" y="544" type="curve" smooth="yes"/>
      <point x="135" y="544"/>
      <point x="56" y="446"/>
      <point x="56" y="267" type="curve" smooth="yes"/>
      <point x="56" y="88"/>
      <point x="135" y="-10"/>
      <point x="270" y="-10" type="curve" smooth="yes"/>
      <point x="347" y="-10"/>
      <point x="398" y="21"/>
      <point x="434" y="89" type="curve"/>
      <point x="456" y="89" type="line"/>
      <point x="449" y="26"/>
      <point x="446" y="-6"/>
    </contour>
    <contour>
      <point x="284" y="45" type="curve" smooth="yes"/>
      <point x="172" y="45"/>
      <point x="122" y="107"/>
      <point x="122" y="245" type="curve" smooth="yes"/>
      <point x="122" y="289" type="line" smooth="yes"/>
      <point x="122" y="427"/>
      <point x="172" y="489"/>
      <point x="284" y="489" type="curve" smooth="yes"/>
      <point x="395" y="489"/>
      <point x="446" y="427"/>
      <point x="446" y="289" type="curve" smooth="yes"/>
      <point x="446" y="245" type="line" smooth="yes"/>
      <point x="446" y="107"/>
      <point x="395" y="45"/>
    </contour>
  </outline>
</glyph>
<glyph name="t" format="1">
  <advance width="365.21552"/>
  <unicode hex="0074"/>
  <outline>
    <contour>
      <point x="173" y="0" type="curve" smooth="yes"/>
      <point x="329" y="0" type="line"/>
      <point x="329" y="51" type="line"/>
      <point x="188" y="51" type="line"/>
      <point x="188" y="641" type="line"/>
      <point x="151" y="641" type="line"/>
      <point x="126" y="534" type="line"/>
      <point x="126" y="47" type="line" smooth="yes"/>
      <point x="126" y="16"/>
      <point x="142" y="0"/>
    </contour>
    <contour>
      <point x="17" y="483" type="line"/>
      <point x="329" y="483" type="line"/>
      <point x="329" y="534" type="line"/>
      <point x="17" y="534" type="line"/>
    </contour>
  </outline>
</glyph>
<glyph name="u" format="1">
  <advance width="603.97414"/>
  <unicode hex="0075"/>
  <outline>
    <contour>
      <point x="274" y="-10" type="curve" smooth="yes"/>
      <point x="350" y="-10"/>
      <point x="399" y="19"/>
      <point x="430" y="82" type="curve"/>
      <point x="452" y="82" type="line"/>
      <point x="452" y="47" type="line" smooth="yes"/>
      <point x="452" y="16"/>
      <point x="469" y="0"/>
      <point x="499" y="0" type="curve" smooth="yes"/>
      <point x="581" y="0" type="line"/>
      <point x="581" y="51" type="line"/>
      <point x="502" y="51" type="line"/>
      <point x="502" y="534" type="line"/>
      <point x="440" y="534" type="line"/>
      <point x="440" y="207" type="line" smooth="yes"/>
      <point x="440" y="94"/>
      <point x="397" y="45"/>
      <point x="300" y="45" type="curve" smooth="yes"/>
      <point x="203" y="45"/>
      <point x="160" y="94"/>
      <point x="160" y="207" type="curve" smooth="yes"/>
      <point x="160" y="534" type="line"/>
      <point x="19" y="534" type="line"/>
      <point x="19" y="483" type="line"/>
      <point x="98" y="483" type="line"/>
      <point x="98" y="193" type="line" smooth="yes"/>
      <point x="98" y="59"/>
      <point x="158" y="-10"/>
    </contour>
    <contour>
      <point x="300" y="534" type="move" name="top"/>
    </contour>
  </outline>
</glyph>
<glyph name="v" format="1">
  <advance width="536.06034"/>
  <unicode hex="0076"/>
  <outline>
    <contour>
      <point x="212" y="0" type="line"/>
      <point x="323" y="0" type="line"/>
      <point x="504" y="534" type="line"/>
      <point x="440" y="534" type="line"/>
      <point x="280" y="55" type="line"/>
      <point x="258" y="55" type="line"/>
      <point x="97" y="534" type="line"/>
      <point x="31" y="534" type="line"/>
    </contour>
  </outline>
</glyph>
<glyph name="y" format="1">
  <advance width="537.06034"/>
  <unicode hex="0079"/>
  <outline>
    <contour>
      <point x="85" y="-132" type="line"/>
      <point x="234" y="-132" type="line" smooth="yes"/>
      <point x="264" y="-132"/>
      <point x="279" y="-115"/>
      <point x="290" y="-85" type="curve" smooth="yes"/>
      <point x="507" y="534" type="line"/>
      <point x="443" y="534" type="line"/>
      <point x="282" y="69" type="line"/>
      <point x="260" y="69" type="line"/>
      <point x="100" y="534" type="line"/>
      <point x="34" y="534" type="line"/>
      <point x="213" y="18" type="line"/>
      <point x="264" y="18" type="line"/>
      <point x="227" y="-81" type="line"/>
      <point x="85" y="-81" type="line"/>
    </contour>
    <contour>
      <point x="271" y="534" type="move" name="top"/>
    </contour>
  </outline>
</glyph>
<glyph name="z" format="1">
  <advance width="492.26724"/>
  <unicode hex="007A"/>
  <outline>
    <contour>
      <point x="47" y="0" type="line"/>
      <point x="445" y="0" type="line"/>
      <point x="445" y="51" type="line"/>
      <point x="123" y="51" type="line"/>
      <point x="443" y="483" type="line"/>
      <point x="443" y="534" type="line"/>
      <point x="50" y="534" type="line"/>
      <point x="50" y="483" type="line"/>
      <point x="366" y="483" type="line"/>
      <point x="47" y="51" type="line"/>
    </contour>
    <contour>
      <point x="246" y="534" type="move" name="top"/>
    </contour>
  </outline>
</glyph>
<glyph name="braceleft" format="1">
  <advance width="360.31897"/>
  <unicode hex="007B"/>
  <outline>
    <contour>
      <point x="173" y="-92" type="curve" smooth="yes"/>
      <point x="323" y="-92" type="line"/>
      <point x="323" y="-41" type="line"/>
      <point x="192" y="-41" type="line" smooth="yes"/>
      <point x="176" y="-41"/>
      <point x="169" y="-34"/>
      <point x="169" y="-18" type="curve" smooth="yes"/>
      <point x="169" y="18"/>
      <point x="213" y="215"/>
      <point x="213" y="276" type="curve" smooth="yes"/>
      <point x="213" y="313"/>
      <point x="198" y="333"/>
      <point x="168" y="337" type="curve"/>
      <point x="168" y="353" type="line"/>
      <point x="198" y="357"/>
      <point x="213" y="377"/>
      <point x="213" y="414" type="curve" smooth="yes"/>
      <point x="213" y="475"/>
      <point x="169" y="672"/>
      <point x="169" y="708" type="curve" smooth="yes"/>
      <point x="169" y="724"/>
      <point x="176" y="731"/>
      <point x="192" y="731" type="curve" smooth="yes"/>
      <point x="323" y="731" type="line"/>
      <point x="323" y="782" type="line"/>
      <point x="173" y="782" type="line" smooth="yes"/>
      <point x="131" y="782"/>
      <point x="109" y="761"/>
      <point x="109" y="718" type="curve" smooth="yes"/>
      <point x="109" y="657"/>
      <point x="155" y="468"/>
      <point x="155" y="412" type="curve" smooth="yes"/>
      <point x="155" y="383"/>
      <point x="144" y="370"/>
      <point x="122" y="370" type="curve" smooth="yes"/>
      <point x="28" y="370" type="line"/>
      <point x="28" y="320" type="line"/>
      <point x="122" y="320" type="line" smooth="yes"/>
      <point x="144" y="320"/>
      <point x="155" y="307"/>
      <point x="155" y="278" type="curve" smooth="yes"/>
      <point x="155" y="222"/>
      <point x="109" y="33"/>
      <point x="109" y="-28" type="curve" smooth="yes"/>
      <point x="109" y="-71"/>
      <point x="131" y="-92"/>
    </contour>
  </outline>
</glyph>
<glyph name="asciitilde" format="1">
  <advance width="474.58621"/>
  <unicode hex="007E"/>
  <outline>
    <contour>
      <point x="40" y="286" type="curve"/>
      <point x="90" y="286" type="line"/>
      <point x="90" y="322"/>
      <point x="106" y="342"/>
      <point x="138" y="342" type="curve" smooth="yes"/>
      <point x="192" y="342"/>
      <point x="266" y="282"/>
      <point x="342" y="282" type="curve" smooth="yes"/>
      <point x="402" y="282"/>
      <point x="434" y="319"/>
      <point x="434" y="388" type="curve"/>
      <point x="384" y="388" type="line"/>
      <point x="384" y="352"/>
      <point x="368" y="332"/>
      <point x="337" y="332" type="curve" smooth="yes"/>
      <point x="282" y="332"/>
      <point x="208" y="392"/>
      <point x="132" y="392" type="curve" smooth="yes"/>
      <point x="72" y="392"/>
      <point x="40" y="355"/>
    </contour>
  </outline>
</glyph>
<glyph name="exclamdown" format="1">
  <advance width="261.53448"/>
  <unicode hex="00A1"/>
  <outline>
    <contour>
      <point x="149" y="365" type="line"/>
      <point x="112" y="365" type="line"/>
      <point x="96" y="-103" type="line"/>
      <point x="96" y="-156" type="line"/>
      <point x="165" y="-156" type="line"/>
      <point x="165" y="-103" type="line"/>
    </contour>
    <contour>
      <point x="172" y="534" type="line"/>
      <point x="89" y="534" type="line"/>
      <point x="89" y="454" type="line"/>
      <point x="172" y="454" type="line"/>
    </contour>
  </outline>
</glyph>
<glyph name="yen" format="1">
  <advance width="616.12931"/>
  <unicode hex="00A5"/>
  <outline>
    <contour>
      <point x="276" y="0" type="line"/>
      <point x="340" y="0" type="line"/>
      <point x="340" y="290" type="line"/>
      <point x="589" y="690" type="line"/>
      <point x="520" y="690" type="line"/>
      <point x="320" y="369" type="line"/>
      <point x="298" y="369" type="line"/>
      <point x="98" y="690" type="line"/>
      <point x="27" y="690" type="line"/>
      <point x="276" y="290" type="line"/>
    </contour>
    <contour>
      <point x="107" y="172" type="line"/>
      <point x="509" y="172" type="line"/>
      <point x="509" y="221" type="line"/>
      <point x="107" y="221" type="line"/>
    </contour>
    <contour>
      <point x="107" y="290" type="line"/>
      <point x="509" y="290" type="line"/>
      <point x="509" y="339" type="line"/>
      <point x="107" y="339" type="line"/>
    </contour>
  </outline>
</glyph>
<glyph name="copyright" format="1">
  <advance width="817.67241"/>
  <unicode hex="00A9"/>
  <outline>
    <contour>
      <point x="409" y="-40" type="curve" smooth="yes"/>
      <point x="623" y="-40"/>
      <point x="767" y="110"/>
      <point x="767" y="345" type="curve" smooth="yes"/>
      <point x="767" y="580"/>
      <point x="623" y="730"/>
      <point x="409" y="730" type="curve" smooth="yes"/>
      <point x="194" y="730"/>
      <point x="51" y="580"/>
      <point x="51" y="345" type="curve" smooth="yes"/>
      <point x="51" y="110"/>
      <point x="194" y="-40"/>
    </contour>
    <contour>
      <point x="409" y="13" type="curve" smooth="yes"/>
      <point x="226" y="13"/>
      <point x="106" y="142"/>
      <point x="106" y="329" type="curve" smooth="yes"/>
      <point x="106" y="361" type="line" smooth="yes"/>
      <point x="106" y="548"/>
      <point x="226" y="677"/>
      <point x="409" y="677" type="curve" smooth="yes"/>
      <point x="592" y="677"/>
      <point x="712" y="548"/>
      <point x="712" y="361" type="curve" smooth="yes"/>
      <point x="712" y="329" type="line" smooth="yes"/>
      <point x="712" y="142"/>
      <point x="592" y="13"/>
    </contour>
    <contour>
      <point x="409" y="100" type="curve" smooth="yes"/>
      <point x="518" y="100"/>
      <point x="590" y="160"/>
      <point x="607" y="273" type="curve"/>
      <point x="546" y="273" type="line"/>
      <point x="546" y="272" type="line" smooth="yes"/>
      <point x="546" y="211"/>
      <point x="508" y="154"/>
      <point x="409" y="154" type="curve" smooth="yes"/>
      <point x="311" y="154"/>
      <point x="265" y="203"/>
      <point x="265" y="322" type="curve" smooth="yes"/>
      <point x="265" y="369" type="line" smooth="yes"/>
      <point x="265" y="487"/>
      <point x="311" y="536"/>
      <point x="409" y="536" type="curve" smooth="yes"/>
      <point x="508" y="536"/>
      <point x="546" y="479"/>
      <point x="546" y="425" type="curve"/>
      <point x="546" y="425" type="line"/>
      <point x="606" y="425" type="line"/>
      <point x="587" y="533"/>
      <point x="515" y="590"/>
      <point x="409" y="590" type="curve" smooth="yes"/>
      <point x="279" y="590"/>
      <point x="203" y="505"/>
      <point x="203" y="345" type="curve" smooth="yes"/>
      <point x="203" y="185"/>
      <point x="279" y="100"/>
    </contour>
  </outline>
</glyph>
<glyph name="guillemetleft" format="1">
  <advance width="529.12069"/>
  <unicode hex="00AB"/>
  <outline>
    <contour>
      <point x="406" y="82" type="line"/>
      <point x="472" y="82" type="line"/>
      <point x="308" y="278" type="line"/>
      <point x="308" y="290" type="line"/>
      <point x="472" y="486" type="line"/>
      <point x="406" y="486" type="line"/>
      <point x="247" y="305" type="line"/>
      <point x="247" y="263" type="line"/>
    </contour>
    <contour>
      <point x="209" y="82" type="line"/>
      <point x="275" y="82" type="line"/>
      <point x="111" y="278" type="line"/>
      <point x="111" y="290" type="line"/>
      <point x="275" y="486" type="line"/>
      <point x="209" y="486" type="line"/>
      <point x="50" y="305" type="line"/>
      <point x="50" y="263" type="line"/>
    </contour>
  </outline>
</glyph>
<glyph name="registered" format="1">
  <advance width="483.59483"/>
  <unicode hex="00AE"/>
  <outline>
    <contour>
      <point x="242" y="293" type="curve" smooth="yes"/>
      <point x="353" y="293"/>
      <point x="434" y="377"/>
      <point x="434" y="496" type="curve" smooth="yes"/>
      <point x="434" y="616"/>
      <point x="353" y="700"/>
      <point x="242" y="700" type="curve" smooth="yes"/>
      <point x="130" y="700"/>
      <point x="49" y="616"/>
      <point x="49" y="496" type="curve" smooth="yes"/>
      <point x="49" y="377"/>
      <point x="130" y="293"/>
    </contour>
    <contour>
      <point x="283" y="382" type="line"/>
      <point x="327" y="382" type="line"/>
      <point x="279" y="498" type="line"/>
      <point x="238" y="493" type="line"/>
    </contour>
    <contour>
      <point x="242" y="334" type="curve" smooth="yes"/>
      <point x="150" y="334"/>
      <point x="94" y="393"/>
      <point x="94" y="490" type="curve" smooth="yes"/>
      <point x="94" y="504" type="line" smooth="yes"/>
      <point x="94" y="601"/>
      <point x="150" y="659"/>
      <point x="242" y="659" type="curve" smooth="yes"/>
      <point x="334" y="659"/>
      <point x="390" y="601"/>
      <point x="390" y="504" type="curve" smooth="yes"/>
      <point x="390" y="490" type="line" smooth="yes"/>
      <point x="390" y="393"/>
      <point x="334" y="334"/>
    </contour>
    <contour>
      <point x="165" y="382" type="line"/>
      <point x="206" y="382" type="line"/>
      <point x="206" y="476" type="line"/>
      <point x="259" y="476" type="line" smooth="yes"/>
      <point x="300" y="476"/>
      <point x="326" y="502"/>
      <point x="326" y="543" type="curve" smooth="yes"/>
      <point x="326" y="584"/>
      <point x="300" y="611"/>
      <point x="259" y="611" type="curve" smooth="yes"/>
      <point x="165" y="611" type="line"/>
    </contour>
    <contour>
      <point x="255" y="508" type="curve" smooth="yes"/>
      <point x="205" y="508" type="line"/>
      <point x="205" y="575" type="line"/>
      <point x="255" y="575" type="line" smooth="yes"/>
      <point x="275" y="575"/>
      <point x="286" y="565"/>
      <point x="286" y="545" type="curve" smooth="yes"/>
      <point x="286" y="538" type="line" smooth="yes"/>
      <point x="286" y="519"/>
      <point x="275" y="508"/>
    </contour>
  </outline>
</glyph>
<glyph name="plusminus" format="1">
  <advance width="474.58621"/>
  <unicode hex="00B1"/>
  <outline>
    <contour>
      <point x="40" y="347" type="line"/>
      <point x="434" y="347" type="line"/>
      <point x="434" y="397" type="line"/>
      <point x="40" y="397" type="line"/>
    </contour>
    <contour>
      <point x="210" y="177" type="line"/>
      <point x="264" y="177" type="line"/>
      <point x="264" y="567" type="line"/>
      <point x="210" y="567" type="line"/>
    </contour>
    <contour>
      <point x="40" y="24" type="line"/>
      <point x="434" y="24" type="line"/>
      <point x="434" y="75" type="line"/>
      <point x="40" y="75" type="line"/>
    </contour>
  </outline>
</glyph>
<glyph name="micro" format="1">
  <advance width="592.24138"/>
  <unicode hex="00B5"/>
  <outline>
    <contour>
      <point x="94" y="-132" type="line"/>
      <point x="156" y="-132" type="line"/>
      <point x="156" y="-37" type="line" smooth="yes"/>
      <point x="156" y="-6"/>
      <point x="153" y="26"/>
      <point x="146" y="89" type="curve"/>
      <point x="130" y="80" type="line"/>
      <point x="146" y="24"/>
      <point x="199" y="-10"/>
      <point x="270" y="-10" type="curve" smooth="yes"/>
      <point x="346" y="-10"/>
      <point x="395" y="19"/>
      <point x="427" y="82" type="curve"/>
      <point x="448" y="82" type="line"/>
      <point x="448" y="0" type="line"/>
      <point x="498" y="0" type="line"/>
      <point x="498" y="534" type="line"/>
      <point x="436" y="534" type="line"/>
      <point x="436" y="207" type="line" smooth="yes"/>
      <point x="436" y="94"/>
      <point x="393" y="45"/>
      <point x="296" y="45" type="curve" smooth="yes"/>
      <point x="199" y="45"/>
      <point x="156" y="94"/>
      <point x="156" y="207" type="curve" smooth="yes"/>
      <point x="156" y="534" type="line"/>
      <point x="94" y="534" type="line"/>
    </contour>
  </outline>
</glyph>
<glyph name="onesuperior" format="1">
  <advance width="340.85345"/>
  <unicode hex="00B9"/>
  <note>
onesuperior
</note>
  <outline>
    <contour>
      <point x="65" y="368" type="line"/>
      <point x="293" y="368" type="line"/>
      <point x="293" y="409" type="line"/>
      <point x="208" y="409" type="line"/>
      <point x="208" y="690" type="line"/>
      <point x="171" y="690" type="line"/>
      <point x="67" y="646" type="line"/>
      <point x="67" y="605" type="line"/>
      <point x="151" y="638" type="line"/>
      <point x="151" y="409" type="line"/>
      <point x="65" y="409" type="line"/>
    </contour>
  </outline>
</glyph>
<glyph name="questiondown" format="1">
  <advance width="543.34483"/>
  <unicode hex="00BF"/>
  <outline>
    <contour>
      <point x="311" y="278" type="curve" smooth="yes"/>
      <point x="308" y="365" type="line"/>
      <point x="271" y="365" type="line"/>
      <point x="268" y="296" type="line" smooth="yes"/>
      <point x="266" y="256"/>
      <point x="245" y="231"/>
      <point x="198" y="214" type="curve" smooth="yes"/>
      <point x="91" y="179"/>
      <point x="48" y="122"/>
      <point x="48" y="31" type="curve" smooth="yes"/>
      <point x="48" y="21" type="line" smooth="yes"/>
      <point x="48" y="-98"/>
      <point x="130" y="-166"/>
      <point x="274" y="-166" type="curve" smooth="yes"/>
      <point x="414" y="-166"/>
      <point x="486" y="-99"/>
      <point x="504" y="61" type="curve"/>
      <point x="439" y="61" type="line"/>
      <point x="439" y="53" type="line" smooth="yes"/>
      <point x="439" y="-52"/>
      <point x="385" y="-110"/>
      <point x="274" y="-110" type="curve" smooth="yes"/>
      <point x="172" y="-110"/>
      <point x="111" y="-65"/>
      <point x="111" y="18" type="curve" smooth="yes"/>
      <point x="111" y="33" type="line" smooth="yes"/>
      <point x="111" y="93"/>
      <point x="142" y="132"/>
      <point x="225" y="161" type="curve" smooth="yes"/>
      <point x="287" y="186"/>
      <point x="313" y="220"/>
    </contour>
    <contour>
      <point x="331" y="534" type="line"/>
      <point x="248" y="534" type="line"/>
      <point x="248" y="454" type="line"/>
      <point x="331" y="454" type="line"/>
    </contour>
  </outline>
</glyph>
<glyph name="Eth" format="1">
  <advance width="702.34483"/>
  <unicode hex="00D0"/>
  <note>
Eth
</note>
  <outline>
    <contour>
      <point x="23" y="327" type="line"/>
      <point x="371" y="327" type="line"/>
      <point x="371" y="377" type="line"/>
      <point x="23" y="377" type="line"/>
    </contour>
    <contour>
      <point x="115" y="0" type="line"/>
      <point x="353" y="0" type="line" smooth="yes"/>
      <point x="539" y="0"/>
      <point x="630" y="104"/>
      <point x="630" y="345" type="curve" smooth="yes"/>
      <point x="630" y="586"/>
      <point x="539" y="690"/>
      <point x="353" y="690" type="curve" smooth="yes"/>
      <point x="23" y="690" type="line"/>
      <point x="23" y="637" type="line"/>
      <point x="115" y="637" type="line"/>
    </contour>
    <contour>
      <point x="348" y="53" type="curve" smooth="yes"/>
      <point x="178" y="53" type="line"/>
      <point x="178" y="637" type="line"/>
      <point x="348" y="637" type="line" smooth="yes"/>
      <point x="494" y="637"/>
      <point x="563" y="564"/>
      <point x="563" y="388" type="curve" smooth="yes"/>
      <point x="563" y="302" type="line" smooth="yes"/>
      <point x="563" y="126"/>
      <point x="494" y="53"/>
    </contour>
  </outline>
</glyph>
<glyph name="Ograve" format="1">
  <advance width="691"/>
  <unicode hex="00D2"/>
  <note>
Ograve
</note>
  <outline>
    <component base="O"/>
    <component base="gravecomb.case" xOffset="144" yOffset="40"/>
    <contour>
      <point x="344" y="690" type="move" name="top"/>
    </contour>
  </outline>
</glyph>
<glyph name="germandbls" format="1">
  <advance width="604.25862"/>
  <unicode hex="00DF"/>
  <note>
germandbls
</note>
  <outline>
    <contour>
      <point x="104" y="496" type="curve" smooth="yes"/>
      <point x="104" y="0" type="line"/>
      <point x="165" y="0" type="line"/>
      <point x="165" y="504" type="line" smooth="yes"/>
      <point x="165" y="596"/>
      <point x="218" y="645"/>
      <point x="317" y="645" type="curve" smooth="yes"/>
      <point x="410" y="645"/>
      <point x="460" y="601"/>
      <point x="460" y="520" type="curve" smooth="yes"/>
      <point x="460" y="499" type="line" smooth="yes"/>
      <point x="460" y="424"/>
      <point x="421" y="385"/>
      <point x="345" y="385" type="curve" smooth="yes"/>
      <point x="258" y="385" type="line"/>
      <point x="258" y="335" type="line"/>
      <point x="349" y="335" type="line" smooth="yes"/>
      <point x="439" y="335"/>
      <point x="485" y="291"/>
      <point x="485" y="208" type="curve" smooth="yes"/>
      <point x="485" y="177" type="line" smooth="yes"/>
      <point x="485" y="94"/>
      <point x="439" y="51"/>
      <point x="349" y="51" type="curve" smooth="yes"/>
      <point x="244" y="51" type="line"/>
      <point x="244" y="0" type="line"/>
      <point x="355" y="0" type="line" smooth="yes"/>
      <point x="477" y="0"/>
      <point x="549" y="70"/>
      <point x="549" y="193" type="curve" smooth="yes"/>
      <point x="549" y="287"/>
      <point x="506" y="338"/>
      <point x="421" y="349" type="curve"/>
      <point x="421" y="371" type="line"/>
      <point x="490" y="380"/>
      <point x="524" y="425"/>
      <point x="524" y="510" type="curve" smooth="yes"/>
      <point x="524" y="628"/>
      <point x="446" y="699"/>
      <point x="317" y="699" type="curve" smooth="yes"/>
      <point x="185" y="699"/>
      <point x="104" y="622"/>
    </contour>
    <contour>
      <point x="20" y="483" type="line"/>
      <point x="146" y="483" type="line"/>
      <point x="146" y="534" type="line"/>
      <point x="20" y="534" type="line"/>
    </contour>
  </outline>
</glyph>
<glyph name="ograve" format="1">
  <advance width="583"/>
  <unicode hex="00F2"/>
  <note>
ograve
</note>
  <outline>
    <component base="o"/>
    <component base="gravecomb" xOffset="92"/>
    <contour>
      <point x="292" y="534" type="move" name="top"/>
    </contour>
  </outline>
</glyph>
<glyph name="udieresis" format="1">
  <advance width="604"/>
  <unicode hex="00FC"/>
  <outline>
    <component base="u"/>
    <component base="dieresiscomb" xOffset="100"/>
    <contour>
      <point x="300" y="534" type="move" name="top"/>
    </contour>
  </outline>
</glyph>
<glyph name="Aogonek" format="1">
  <advance width="631.41379"/>
  <unicode hex="0104"/>
  <outline>
    <contour>
      <point x="38" y="0" type="line"/>
      <point x="104" y="0" type="line"/>
      <point x="306" y="633" type="line"/>
      <point x="328" y="633" type="line"/>
      <point x="530" y="0" type="line"/>
      <point x="599" y="0" type="line"/>
      <point x="376" y="690" type="line"/>
      <point x="261" y="690" type="line"/>
    </contour>
    <contour>
      <point x="136" y="188" type="line"/>
      <point x="500" y="188" type="line"/>
      <point x="487" y="238" type="line"/>
      <point x="150" y="238" type="line"/>
    </contour>
    <contour>
      <point x="152" y="637" type="line"/>
      <point x="287" y="637" type="line"/>
      <point x="287" y="690" type="line"/>
      <point x="152" y="690" type="line"/>
    </contour>
    <contour>
      <point x="517" y="-143" type="curve" smooth="yes"/>
      <point x="605" y="-143" type="line"/>
      <point x="605" y="-101" type="line"/>
      <point x="523" y="-101" type="line" smooth="yes"/>
      <point x="503" y="-101"/>
      <point x="492" y="-92"/>
      <point x="492" y="-75" type="curve" smooth="yes"/>
      <point x="492" y="-53"/>
      <point x="517" y="-34"/>
      <point x="599" y="0" type="curve"/>
      <point x="533" y="12" type="line"/>
      <point x="533" y="-11" type="line"/>
      <point x="468" y="-29"/>
      <point x="445" y="-49"/>
      <point x="445" y="-87" type="curve" smooth="yes"/>
      <point x="445" y="-123"/>
      <point x="470" y="-143"/>
    </contour>
    <contour>
      <point x="599" y="0" type="move" name="ogonek"/>
    </contour>
    <contour>
      <point x="315" y="690" type="move" name="top"/>
    </contour>
  </outline>
</glyph>
<glyph name="IJ" format="1">
  <advance width="703"/>
  <unicode hex="0132"/>
  <outline>
    <contour>
      <point x="373" y="-10" type="curve" smooth="yes"/>
      <point x="544" y="-10"/>
      <point x="616" y="81"/>
      <point x="616" y="282" type="curve" smooth="yes"/>
      <point x="616" y="690" type="line"/>
      <point x="552" y="690" type="line"/>
      <point x="552" y="254" type="line" smooth="yes"/>
      <point x="552" y="109"/>
      <point x="505" y="47"/>
      <point x="373" y="47" type="curve" smooth="yes"/>
      <point x="249" y="47"/>
      <point x="194" y="109"/>
      <point x="194" y="249" type="curve" smooth="yes"/>
      <point x="194" y="277" type="line"/>
      <point x="131" y="277" type="line"/>
      <point x="131" y="271" type="line" smooth="yes"/>
      <point x="131" y="81"/>
      <point x="210" y="-10"/>
    </contour>
    <contour>
      <point x="44" y="333" type="line"/>
      <point x="281" y="333" type="line"/>
      <point x="281" y="384" type="line"/>
      <point x="192" y="384" type="line"/>
      <point x="192" y="637" type="line"/>
      <point x="281" y="637" type="line"/>
      <point x="281" y="690" type="line"/>
      <point x="44" y="690" type="line"/>
      <point x="44" y="637" type="line"/>
      <point x="133" y="637" type="line"/>
      <point x="133" y="384" type="line"/>
      <point x="44" y="384" type="line"/>
    </contour>
    <contour>
      <point x="378" y="637" type="line"/>
      <point x="578" y="637" type="line"/>
      <point x="578" y="690" type="line"/>
      <point x="378" y="690" type="line"/>
    </contour>
  </outline>
</glyph>
<glyph name="Scaron" format="1">
  <advance width="621"/>
  <unicode hex="0160"/>
  <note>
Scaron
</note>
  <outline>
    <component base="S"/>
    <component base="caroncomb.case" xOffset="104" yOffset="40"/>
    <contour>
      <point x="304" y="690" type="move" name="top"/>
    </contour>
  </outline>
</glyph>
<glyph name="scaron" format="1">
  <advance width="532"/>
  <unicode hex="0161"/>
  <note>
scaron
</note>
  <outline>
    <component base="s"/>
    <component base="caroncomb" xOffset="60"/>
    <contour>
      <point x="260" y="534" type="move" name="top"/>
    </contour>
  </outline>
</glyph>
<glyph name="Zcaron" format="1">
  <advance width="569"/>
  <unicode hex="017D"/>
  <note>
Zcaron
</note>
  <outline>
    <component base="Z"/>
    <component base="caroncomb.case" xOffset="85" yOffset="40"/>
    <contour>
      <point x="285" y="690" type="move" name="top"/>
    </contour>
  </outline>
</glyph>
<glyph name="florin" format="1">
  <advance width="459.33621"/>
  <unicode hex="0192"/>
  <outline>
    <contour>
      <point x="47" y="0" type="line"/>
      <point x="206" y="0" type="line" smooth="yes"/>
      <point x="236" y="0"/>
      <point x="252" y="16"/>
      <point x="252" y="47" type="curve" smooth="yes"/>
      <point x="252" y="637" type="line"/>
      <point x="418" y="637" type="line"/>
      <point x="418" y="690" type="line"/>
      <point x="238" y="690" type="line" smooth="yes"/>
      <point x="207" y="690"/>
      <point x="191" y="674"/>
      <point x="191" y="643" type="curve" smooth="yes"/>
      <point x="191" y="53" type="line"/>
      <point x="47" y="53" type="line"/>
    </contour>
    <contour>
      <point x="47" y="409" type="line"/>
      <point x="418" y="409" type="line"/>
      <point x="418" y="458" type="line"/>
      <point x="47" y="458" type="line"/>
    </contour>
  </outline>
</glyph>
<glyph name="jdotless" format="1">
  <advance width="271.87931"/>
  <unicode hex="0237"/>
  <outline>
    <contour>
      <point x="17" y="-132" type="line"/>
      <point x="133" y="-132" type="line" smooth="yes"/>
      <point x="163" y="-132"/>
      <point x="180" y="-116"/>
      <point x="180" y="-85" type="curve" smooth="yes"/>
      <point x="180" y="534" type="line"/>
      <point x="24" y="534" type="line"/>
      <point x="24" y="483" type="line"/>
      <point x="118" y="483" type="line"/>
      <point x="118" y="-81" type="line"/>
      <point x="17" y="-81" type="line"/>
    </contour>
    <contour>
      <point x="147" y="534" type="move" name="top"/>
    </contour>
  </outline>
</glyph>
<glyph name="dotaccent" format="1">
  <advance width="400"/>
  <unicode hex="02D9"/>
  <outline>
    <component base="dotaccentcomb" identifier="9C1610EA"/>
    <contour>
      <point x="200" y="534" type="move" name="_top"/>
    </contour>
  </outline>
</glyph>
<glyph name="tildecomb" format="1">
  <advance width="0"/>
  <unicode hex="0303"/>
  <note>
tilde
</note>
  <outline>
    <contour>
      <point x="261" y="578" type="curve" smooth="yes"/>
      <point x="308" y="578"/>
      <point x="335" y="608"/>
      <point x="335" y="657" type="curve" smooth="yes"/>
      <point x="335" y="693" type="line"/>
      <point x="294" y="693" type="line"/>
      <point x="294" y="659" type="line" smooth="yes"/>
      <point x="294" y="634"/>
      <point x="282" y="622"/>
      <point x="260" y="622" type="curve" smooth="yes"/>
      <point x="211" y="622"/>
      <point x="213" y="697"/>
      <point x="139" y="697" type="curve" smooth="yes"/>
      <point x="92" y="697"/>
      <point x="65" y="667"/>
      <point x="65" y="618" type="curve" smooth="yes"/>
      <point x="65" y="582" type="line"/>
      <point x="106" y="582" type="line"/>
      <point x="106" y="616" type="line" smooth="yes"/>
      <point x="106" y="641"/>
      <point x="118" y="654"/>
      <point x="140" y="654" type="curve" smooth="yes"/>
      <point x="189" y="654"/>
      <point x="187" y="578"/>
    </contour>
    <contour>
      <point x="200" y="534" type="move" name="_top"/>
    </contour>
  </outline>
</glyph>
<glyph name="ogonekcomb" format="1">
  <advance width="0"/>
  <unicode hex="0328"/>
  <outline>
    <contour>
      <point x="118" y="-143" type="curve" smooth="yes"/>
      <point x="207" y="-143" type="line"/>
      <point x="207" y="-101" type="line"/>
      <point x="125" y="-101" type="line" smooth="yes"/>
      <point x="104" y="-101"/>
      <point x="94" y="-92"/>
      <point x="94" y="-75" type="curve" smooth="yes"/>
      <point x="94" y="-53"/>
      <point x="118" y="-34"/>
      <point x="200" y="0" type="curve"/>
      <point x="120" y="13" type="line"/>
      <point x="120" y="-17" type="line"/>
      <point x="68" y="-30"/>
      <point x="47" y="-51"/>
      <point x="47" y="-87" type="curve" smooth="yes"/>
      <point x="47" y="-123"/>
      <point x="72" y="-143"/>
    </contour>
    <contour>
      <point x="200" y="0" type="move" name="_ogonek"/>
    </contour>
  </outline>
</glyph>
<glyph name="Germandbls" format="1">
  <advance width="668.31034"/>
  <unicode hex="1E9E"/>
  <outline>
    <contour>
      <point x="128" y="0" type="line"/>
      <point x="192" y="0" type="line"/>
      <point x="192" y="637" type="line"/>
      <point x="511" y="637" type="line"/>
      <point x="325" y="391" type="line"/>
      <point x="325" y="340" type="line"/>
      <point x="407" y="340" type="line" smooth="yes"/>
      <point x="496" y="340"/>
      <point x="543" y="296"/>
      <point x="543" y="211" type="curve" smooth="yes"/>
      <point x="543" y="181" type="line" smooth="yes"/>
      <point x="543" y="97"/>
      <point x="496" y="53"/>
      <point x="407" y="53" type="curve" smooth="yes"/>
      <point x="278" y="53" type="line"/>
      <point x="278" y="0" type="line"/>
      <point x="412" y="0" type="line" smooth="yes"/>
      <point x="536" y="0"/>
      <point x="608" y="71"/>
      <point x="608" y="195" type="curve" smooth="yes"/>
      <point x="608" y="319"/>
      <point x="537" y="391"/>
      <point x="416" y="391" type="curve"/>
      <point x="360" y="391" type="line"/>
      <point x="386" y="368" type="line"/>
      <point x="589" y="637" type="line"/>
      <point x="589" y="690" type="line"/>
      <point x="37" y="690" type="line"/>
      <point x="37" y="637" type="line"/>
      <point x="128" y="637" type="line"/>
    </contour>
  </outline>
</glyph>
<glyph name="quoteleft" format="1">
  <advance width="237.57759"/>
  <unicode hex="2018"/>
  <outline>
    <contour>
      <point x="162" y="690" type="line"/>
      <point x="122" y="690" type="line"/>
      <point x="75" y="591" type="line"/>
      <point x="75" y="512" type="line"/>
      <point x="158" y="512" type="line"/>
      <point x="158" y="591" type="line"/>
      <point x="116" y="591" type="line"/>
    </contour>
  </outline>
</glyph>
<glyph name="perthousand" format="1">
  <advance width="1188.80172"/>
  <unicode hex="2030"/>
  <outline>
    <contour>
      <point x="94" y="0" type="line"/>
      <point x="159" y="0" type="line"/>
      <point x="386" y="322" type="line"/>
      <point x="320" y="322" type="line"/>
    </contour>
    <contour>
      <point x="395" y="368" type="line"/>
      <point x="460" y="368" type="line"/>
      <point x="687" y="690" type="line"/>
      <point x="621" y="690" type="line"/>
    </contour>
    <contour>
      <point x="221" y="360" type="curve" smooth="yes"/>
      <point x="340" y="360"/>
      <point x="396" y="436"/>
      <point x="396" y="531" type="curve" smooth="yes"/>
      <point x="396" y="624"/>
      <point x="340" y="700"/>
      <point x="221" y="700" type="curve" smooth="yes"/>
      <point x="102" y="700"/>
      <point x="45" y="624"/>
      <point x="45" y="531" type="curve" smooth="yes"/>
      <point x="45" y="436"/>
      <point x="102" y="360"/>
    </contour>
    <contour>
      <point x="221" y="410" type="curve" smooth="yes"/>
      <point x="141" y="410"/>
      <point x="104" y="449"/>
      <point x="104" y="518" type="curve" smooth="yes"/>
      <point x="104" y="542" type="line" smooth="yes"/>
      <point x="104" y="611"/>
      <point x="141" y="650"/>
      <point x="221" y="650" type="curve" smooth="yes"/>
      <point x="300" y="650"/>
      <point x="338" y="611"/>
      <point x="338" y="542" type="curve" smooth="yes"/>
      <point x="338" y="518" type="line" smooth="yes"/>
      <point x="338" y="449"/>
      <point x="300" y="410"/>
    </contour>
    <contour>
      <point x="560" y="-10" type="curve" smooth="yes"/>
      <point x="679" y="-10"/>
      <point x="736" y="66"/>
      <point x="736" y="160" type="curve" smooth="yes"/>
      <point x="736" y="254"/>
      <point x="679" y="330"/>
      <point x="560" y="330" type="curve" smooth="yes"/>
      <point x="441" y="330"/>
      <point x="385" y="254"/>
      <point x="385" y="160" type="curve" smooth="yes"/>
      <point x="385" y="66"/>
      <point x="441" y="-10"/>
    </contour>
    <contour>
      <point x="560" y="40" type="curve" smooth="yes"/>
      <point x="480" y="40"/>
      <point x="443" y="79"/>
      <point x="443" y="148" type="curve" smooth="yes"/>
      <point x="443" y="172" type="line" smooth="yes"/>
      <point x="443" y="241"/>
      <point x="480" y="280"/>
      <point x="560" y="280" type="curve" smooth="yes"/>
      <point x="640" y="280"/>
      <point x="677" y="241"/>
      <point x="677" y="172" type="curve" smooth="yes"/>
      <point x="677" y="148" type="line" smooth="yes"/>
      <point x="677" y="79"/>
      <point x="640" y="40"/>
    </contour>
    <contour>
      <point x="975" y="-10" type="curve" smooth="yes"/>
      <point x="1094" y="-10"/>
      <point x="1150" y="66"/>
      <point x="1150" y="160" type="curve" smooth="yes"/>
      <point x="1150" y="254"/>
      <point x="1094" y="330"/>
      <point x="975" y="330" type="curve" smooth="yes"/>
      <point x="856" y="330"/>
      <point x="799" y="254"/>
      <point x="799" y="160" type="curve" smooth="yes"/>
      <point x="799" y="66"/>
      <point x="856" y="-10"/>
    </contour>
    <contour>
      <point x="975" y="40" type="curve" smooth="yes"/>
      <point x="895" y="40"/>
      <point x="858" y="79"/>
      <point x="858" y="148" type="curve" smooth="yes"/>
      <point x="858" y="172" type="line" smooth="yes"/>
      <point x="858" y="241"/>
      <point x="895" y="280"/>
      <point x="975" y="280" type="curve" smooth="yes"/>
      <point x="1054" y="280"/>
      <point x="1092" y="241"/>
      <point x="1092" y="172" type="curve" smooth="yes"/>
      <point x="1092" y="148" type="line" smooth="yes"/>
      <point x="1092" y="79"/>
      <point x="1054" y="40"/>
    </contour>
  </outline>
</glyph>
<glyph name="literSign" format="1">
  <advance width="587.40517"/>
  <unicode hex="2113"/>
  <outline>
    <contour>
      <point x="335" y="-10" type="curve" smooth="yes"/>
      <point x="442" y="-10"/>
      <point x="509" y="48"/>
      <point x="530" y="161" type="curve"/>
      <point x="466" y="161" type="line"/>
      <point x="466" y="161" type="line" smooth="yes"/>
      <point x="466" y="111"/>
      <point x="433" y="45"/>
      <point x="335" y="45" type="curve" smooth="yes"/>
      <point x="235" y="45"/>
      <point x="198" y="108"/>
      <point x="198" y="275" type="curve" smooth="yes"/>
      <point x="198" y="415" type="line" smooth="yes"/>
      <point x="198" y="582"/>
      <point x="238" y="645"/>
      <point x="343" y="645" type="curve" smooth="yes"/>
      <point x="432" y="645"/>
      <point x="477" y="598"/>
      <point x="477" y="508" type="curve" smooth="yes"/>
      <point x="477" y="498" type="line" smooth="yes"/>
      <point x="477" y="420"/>
      <point x="445" y="382"/>
      <point x="342" y="339" type="curve" smooth="yes"/>
      <point x="37" y="212" type="line"/>
      <point x="37" y="156" type="line"/>
      <point x="370" y="297" type="line" smooth="yes"/>
      <point x="495" y="350"/>
      <point x="540" y="405"/>
      <point x="540" y="505" type="curve" smooth="yes"/>
      <point x="540" y="627"/>
      <point x="467" y="700"/>
      <point x="343" y="700" type="curve" smooth="yes"/>
      <point x="193" y="700"/>
      <point x="132" y="604"/>
      <point x="132" y="345" type="curve" smooth="yes"/>
      <point x="132" y="89"/>
      <point x="193" y="-10"/>
    </contour>
  </outline>
</glyph>
<glyph name="Ohm" format="1">
  <advance width="701.81897"/>
  <unicode hex="2126"/>
  <outline>
    <contour>
      <point x="71" y="0" type="line"/>
      <point x="278" y="0" type="line"/>
      <point x="278" y="77" type="line"/>
      <point x="202" y="136"/>
      <point x="133" y="218"/>
      <point x="133" y="349" type="curve" smooth="yes"/>
      <point x="133" y="391" type="line" smooth="yes"/>
      <point x="133" y="556"/>
      <point x="226" y="643"/>
      <point x="351" y="643" type="curve" smooth="yes"/>
      <point x="475" y="643"/>
      <point x="569" y="556"/>
      <point x="569" y="391" type="curve" smooth="yes"/>
      <point x="569" y="349" type="line" smooth="yes"/>
      <point x="569" y="218"/>
      <point x="499" y="136"/>
      <point x="423" y="77" type="curve"/>
      <point x="423" y="0" type="line"/>
      <point x="631" y="0" type="line"/>
      <point x="631" y="57" type="line"/>
      <point x="483" y="57" type="line"/>
      <point x="483" y="79" type="line"/>
      <point x="560" y="123"/>
      <point x="636" y="224"/>
      <point x="636" y="370" type="curve" smooth="yes"/>
      <point x="636" y="571"/>
      <point x="515" y="700"/>
      <point x="351" y="700" type="curve" smooth="yes"/>
      <point x="186" y="700"/>
      <point x="65" y="571"/>
      <point x="65" y="370" type="curve" smooth="yes"/>
      <point x="65" y="224"/>
      <point x="141" y="123"/>
      <point x="218" y="79" type="curve"/>
      <point x="218" y="57" type="line"/>
      <point x="71" y="57" type="line"/>
    </contour>
  </outline>
</glyph>
<glyph name="divisionslash" format="1">
  <advance width="474.58621"/>
  <unicode hex="2215"/>
  <outline>
    <contour>
      <point x="35" y="0" type="line"/>
      <point x="96" y="0" type="line"/>
      <point x="439" y="690" type="line"/>
      <point x="379" y="690" type="line"/>
    </contour>
  </outline>
</glyph>
<glyph name="radical" format="1">
  <advance width="538.53448"/>
  <unicode hex="221A"/>
  <outline>
    <contour>
      <point x="190" y="0" type="line"/>
      <point x="301" y="0" type="line"/>
      <point x="496" y="690" type="line"/>
      <point x="435" y="690" type="line"/>
      <point x="255" y="55" type="line"/>
      <point x="233" y="55" type="line"/>
      <point x="110" y="356" type="line"/>
      <point x="44" y="356" type="line"/>
    </contour>
  </outline>
</glyph>
<glyph name="integral" format="1">
  <advance width="331.38793"/>
  <unicode hex="222B"/>
  <outline>
    <contour>
      <point x="29" y="0" type="line"/>
      <point x="150" y="0" type="line" smooth="yes"/>
      <point x="179" y="0"/>
      <point x="194" y="15"/>
      <point x="194" y="44" type="curve" smooth="yes"/>
      <point x="194" y="637" type="line"/>
      <point x="303" y="637" type="line"/>
      <point x="303" y="690" type="line"/>
      <point x="182" y="690" type="line" smooth="yes"/>
      <point x="153" y="690"/>
      <point x="138" y="675"/>
      <point x="138" y="646" type="curve" smooth="yes"/>
      <point x="138" y="53" type="line"/>
      <point x="29" y="53" type="line"/>
    </contour>
  </outline>
</glyph>
<glyph name="lessequal" format="1">
  <advance width="474.58621"/>
  <unicode hex="2264"/>
  <outline>
    <contour>
      <point x="432" y="173" type="line"/>
      <point x="432" y="229" type="line"/>
      <point x="93" y="361" type="line"/>
      <point x="93" y="383" type="line"/>
      <point x="432" y="515" type="line"/>
      <point x="432" y="571" type="line"/>
      <point x="37" y="410" type="line"/>
      <point x="37" y="334" type="line"/>
    </contour>
    <contour>
      <point x="37" y="24" type="line"/>
      <point x="432" y="24" type="line"/>
      <point x="432" y="75" type="line"/>
      <point x="37" y="75" type="line"/>
    </contour>
  </outline>
</glyph>
<glyph name="personalComputer" format="1">
  <advance width="883.68966"/>
  <unicode hex="1F4BB"/>
  <outline>
    <contour>
      <point x="644" y="0" type="line"/>
      <point x="706" y="0" type="line"/>
      <point x="876" y="690" type="line"/>
      <point x="814" y="690" type="line"/>
    </contour>
    <contour>
      <point x="85" y="0" type="line"/>
      <point x="168" y="0" type="line"/>
      <point x="168" y="80" type="line"/>
      <point x="85" y="80" type="line"/>
    </contour>
    <contour>
      <point x="85" y="454" type="line"/>
      <point x="168" y="454" type="line"/>
      <point x="168" y="534" type="line"/>
      <point x="85" y="534" type="line"/>
    </contour>
    <contour>
      <point x="339" y="0" type="line"/>
      <point x="400" y="0" type="line"/>
      <point x="570" y="690" type="line"/>
      <point x="508" y="690" type="line"/>
    </contour>
  </outline>
</glyph>
<glyph name="Aogonek.ss03" format="1">
  <advance width="624.96552"/>
  <outline>
    <contour>
      <point x="32" y="0" type="line"/>
      <point x="98" y="0" type="line"/>
      <point x="301" y="633" type="line"/>
      <point x="322" y="633" type="line"/>
      <point x="525" y="0" type="line"/>
      <point x="593" y="0" type="line"/>
      <point x="370" y="690" type="line"/>
      <point x="255" y="690" type="line"/>
    </contour>
    <contour>
      <point x="126" y="188" type="line"/>
      <point x="499" y="188" type="line"/>
      <point x="485" y="238" type="line"/>
      <point x="140" y="238" type="line"/>
    </contour>
    <contour>
      <point x="511" y="-143" type="curve" smooth="yes"/>
      <point x="600" y="-143" type="line"/>
      <point x="600" y="-101" type="line"/>
      <point x="518" y="-101" type="line" smooth="yes"/>
      <point x="497" y="-101"/>
      <point x="486" y="-92"/>
      <point x="486" y="-75" type="curve" smooth="yes"/>
      <point x="486" y="-53"/>
      <point x="511" y="-34"/>
      <point x="593" y="0" type="curve"/>
      <point x="527" y="12" type="line"/>
      <point x="527" y="-11" type="line"/>
      <point x="462" y="-29"/>
      <point x="440" y="-49"/>
      <point x="440" y="-87" type="curve" smooth="yes"/>
      <point x="440" y="-123"/>
      <point x="465" y="-143"/>
    </contour>
    <contour>
      <point x="593" y="0" type="move" name="ogonek"/>
    </contour>
    <contour>
      <point x="311" y="690" type="move" name="top"/>
    </contour>
  </outline>
</glyph>
<glyph name="D.ss03" format="1">
  <advance width="678.49138"/>
  <outline>
    <contour>
      <point x="101" y="0" type="line"/>
      <point x="340" y="0" type="line" smooth="yes"/>
      <point x="525" y="0"/>
      <point x="617" y="104"/>
      <point x="617" y="345" type="curve" smooth="yes"/>
      <point x="617" y="586"/>
      <point x="525" y="690"/>
      <point x="340" y="690" type="curve" smooth="yes"/>
      <point x="101" y="690" type="line"/>
    </contour>
    <contour>
      <point x="334" y="53" type="curve" smooth="yes"/>
      <point x="165" y="53" type="line"/>
      <point x="165" y="637" type="line"/>
      <point x="334" y="637" type="line" smooth="yes"/>
      <point x="480" y="637"/>
      <point x="549" y="564"/>
      <point x="549" y="388" type="curve" smooth="yes"/>
      <point x="549" y="302" type="line" smooth="yes"/>
      <point x="549" y="126"/>
      <point x="480" y="53"/>
    </contour>
  </outline>
</glyph>
<glyph name="Germandbls.ss03" format="1">
  <advance width="642.68103"/>
  <outline>
    <contour>
      <point x="104" y="0" type="line"/>
      <point x="167" y="0" type="line"/>
      <point x="167" y="637" type="line"/>
      <point x="486" y="637" type="line"/>
      <point x="301" y="391" type="line"/>
      <point x="301" y="340" type="line"/>
      <point x="382" y="340" type="line" smooth="yes"/>
      <point x="472" y="340"/>
      <point x="518" y="296"/>
      <point x="518" y="211" type="curve" smooth="yes"/>
      <point x="518" y="181" type="line" smooth="yes"/>
      <point x="518" y="97"/>
      <point x="472" y="53"/>
      <point x="382" y="53" type="curve" smooth="yes"/>
      <point x="253" y="53" type="line"/>
      <point x="253" y="0" type="line"/>
      <point x="387" y="0" type="line" smooth="yes"/>
      <point x="512" y="0"/>
      <point x="584" y="71"/>
      <point x="584" y="195" type="curve" smooth="yes"/>
      <point x="584" y="319"/>
      <point x="512" y="391"/>
      <point x="392" y="391" type="curve" smooth="yes"/>
      <point x="335" y="391" type="line"/>
      <point x="361" y="368" type="line"/>
      <point x="565" y="637" type="line"/>
      <point x="565" y="690" type="line"/>
      <point x="104" y="690" type="line"/>
    </contour>
  </outline>
</glyph>
<glyph name="H.ss03" format="1">
  <advance width="670.69828"/>
  <outline>
    <contour>
      <point x="506" y="0" type="line"/>
      <point x="569" y="0" type="line"/>
      <point x="569" y="690" type="line"/>
      <point x="506" y="690" type="line"/>
    </contour>
    <contour>
      <point x="101" y="0" type="line"/>
      <point x="165" y="0" type="line"/>
      <point x="165" y="690" type="line"/>
      <point x="101" y="690" type="line"/>
    </contour>
    <contour>
      <point x="132" y="327" type="line"/>
      <point x="537" y="327" type="line"/>
      <point x="537" y="377" type="line"/>
      <point x="132" y="377" type="line"/>
    </contour>
  </outline>
</glyph>
<glyph name="K.ss03" format="1">
  <advance width="631.82759"/>
  <outline>
    <contour>
      <point x="103" y="0" type="line"/>
      <point x="167" y="0" type="line"/>
      <point x="167" y="329" type="line"/>
      <point x="258" y="329" type="line"/>
      <point x="489" y="0" type="line"/>
      <point x="622" y="0" type="line"/>
      <point x="622" y="53" type="line"/>
      <point x="530" y="53" type="line"/>
      <point x="297" y="384" type="line"/>
      <point x="302" y="336" type="line"/>
      <point x="594" y="690" type="line"/>
      <point x="512" y="690" type="line"/>
      <point x="258" y="379" type="line"/>
      <point x="167" y="379" type="line"/>
      <point x="167" y="690" type="line"/>
      <point x="103" y="690" type="line"/>
    </contour>
  </outline>
</glyph>
<glyph name="L.ss03" format="1">
  <advance width="568.48276"/>
  <outline>
    <contour>
      <point x="100" y="0" type="line"/>
      <point x="521" y="0" type="line"/>
      <point x="521" y="200" type="line"/>
      <point x="465" y="200" type="line"/>
      <point x="465" y="53" type="line"/>
      <point x="163" y="53" type="line"/>
      <point x="163" y="690" type="line"/>
      <point x="100" y="690" type="line"/>
    </contour>
    <contour>
      <point x="139" y="690" type="line"/>
      <point x="139" y="637" type="line"/>
      <point x="255" y="637" type="line"/>
      <point x="255" y="690" type="line"/>
    </contour>
  </outline>
</glyph>
<glyph name="Lslash.ss03" format="1">
  <advance width="596.72414"/>
  <note>
Lslash
</note>
  <outline>
    <contour>
      <point x="129" y="0" type="line"/>
      <point x="550" y="0" type="line"/>
      <point x="550" y="200" type="line"/>
      <point x="494" y="200" type="line"/>
      <point x="494" y="53" type="line"/>
      <point x="193" y="53" type="line"/>
      <point x="193" y="690" type="line"/>
      <point x="129" y="690" type="line"/>
    </contour>
    <contour>
      <point x="168" y="690" type="line"/>
      <point x="168" y="637" type="line"/>
      <point x="284" y="637" type="line"/>
      <point x="284" y="690" type="line"/>
    </contour>
    <contour>
      <point x="37" y="201" type="line"/>
      <point x="380" y="377" type="line"/>
      <point x="380" y="429" type="line"/>
      <point x="37" y="254" type="line"/>
    </contour>
  </outline>
</glyph>
<glyph name="M.ss04" format="1">
  <advance width="899.24138"/>
  <outline>
    <contour>
      <point x="109" y="0" type="line"/>
      <point x="171" y="0" type="line"/>
      <point x="171" y="633" type="line"/>
      <point x="192" y="633" type="line"/>
      <point x="425" y="0" type="line"/>
      <point x="481" y="0" type="line"/>
      <point x="713" y="633" type="line"/>
      <point x="735" y="633" type="line"/>
      <point x="735" y="0" type="line"/>
      <point x="798" y="0" type="line"/>
      <point x="798" y="690" type="line"/>
      <point x="673" y="690" type="line"/>
      <point x="465" y="129" type="line"/>
      <point x="443" y="129" type="line"/>
      <point x="234" y="690" type="line"/>
      <point x="109" y="690" type="line"/>
    </contour>
    <contour>
      <point x="131" y="637" type="line"/>
      <point x="131" y="690" type="line"/>
      <point x="18" y="690" type="line"/>
      <point x="18" y="637" type="line"/>
    </contour>
  </outline>
</glyph>
<glyph name="P.ss03" format="1">
  <advance width="605.31897"/>
  <outline>
    <contour>
      <point x="102" y="0" type="line"/>
      <point x="166" y="0" type="line"/>
      <point x="166" y="299" type="line"/>
      <point x="375" y="299" type="line" smooth="yes"/>
      <point x="492" y="299"/>
      <point x="560" y="369"/>
      <point x="560" y="494" type="curve" smooth="yes"/>
      <point x="560" y="620"/>
      <point x="492" y="690"/>
      <point x="374" y="690" type="curve" smooth="yes"/>
      <point x="102" y="690" type="line"/>
    </contour>
    <contour>
      <point x="369" y="350" type="curve" smooth="yes"/>
      <point x="166" y="350" type="line"/>
      <point x="166" y="637" type="line"/>
      <point x="369" y="637" type="line" smooth="yes"/>
      <point x="451" y="637"/>
      <point x="494" y="593"/>
      <point x="494" y="509" type="curve" smooth="yes"/>
      <point x="494" y="479" type="line" smooth="yes"/>
      <point x="494" y="395"/>
      <point x="451" y="350"/>
    </contour>
  </outline>
</glyph>
<glyph name="R.ss03" format="1">
  <advance width="646.4569"/>
  <outline>
    <contour>
      <point x="101" y="0" type="line"/>
      <point x="165" y="0" type="line"/>
      <point x="165" y="319" type="line"/>
      <point x="355" y="319" type="line" smooth="yes"/>
      <point x="432" y="319"/>
      <point x="473" y="279"/>
      <point x="473" y="198" type="curve" smooth="yes"/>
      <point x="473" y="0" type="line"/>
      <point x="625" y="0" type="line"/>
      <point x="625" y="53" type="line"/>
      <point x="536" y="53" type="line"/>
      <point x="536" y="194" type="line" smooth="yes"/>
      <point x="536" y="277"/>
      <point x="504" y="324"/>
      <point x="441" y="333" type="curve"/>
      <point x="441" y="354" type="line"/>
      <point x="520" y="365"/>
      <point x="559" y="413"/>
      <point x="559" y="504" type="curve" smooth="yes"/>
      <point x="559" y="623"/>
      <point x="494" y="690"/>
      <point x="381" y="690" type="curve"/>
      <point x="101" y="690" type="line"/>
    </contour>
    <contour>
      <point x="375" y="370" type="curve" smooth="yes"/>
      <point x="165" y="370" type="line"/>
      <point x="165" y="637" type="line"/>
      <point x="375" y="637" type="line" smooth="yes"/>
      <point x="453" y="637"/>
      <point x="493" y="596"/>
      <point x="493" y="515" type="curve" smooth="yes"/>
      <point x="493" y="492" type="line" smooth="yes"/>
      <point x="493" y="412"/>
      <point x="453" y="370"/>
    </contour>
  </outline>
</glyph>
<glyph name="Thorn.ss03" format="1">
  <advance width="614.76724"/>
  <note>
Thorn
</note>
  <outline>
    <contour>
      <point x="134" y="158" type="line"/>
      <point x="375" y="158" type="line" smooth="yes"/>
      <point x="492" y="158"/>
      <point x="560" y="227"/>
      <point x="560" y="352" type="curve" smooth="yes"/>
      <point x="560" y="477"/>
      <point x="492" y="546"/>
      <point x="374" y="546" type="curve" smooth="yes"/>
      <point x="134" y="546" type="line"/>
      <point x="134" y="495" type="line"/>
      <point x="369" y="495" type="line" smooth="yes"/>
      <point x="451" y="495"/>
      <point x="494" y="451"/>
      <point x="494" y="367" type="curve" smooth="yes"/>
      <point x="494" y="337" type="line" smooth="yes"/>
      <point x="494" y="253"/>
      <point x="451" y="209"/>
      <point x="369" y="209" type="curve" smooth="yes"/>
      <point x="134" y="209" type="line"/>
    </contour>
    <contour>
      <point x="102" y="0" type="line"/>
      <point x="166" y="0" type="line"/>
      <point x="166" y="690" type="line"/>
      <point x="102" y="690" type="line"/>
    </contour>
  </outline>
</glyph>
<glyph name="Udieresis.ss03" format="1">
  <advance width="684"/>
  <outline>
    <component base="U.ss03"/>
    <component base="dieresiscomb.case" xOffset="134" yOffset="40"/>
    <contour>
      <point x="334" y="690" type="move" name="top"/>
    </contour>
  </outline>
</glyph>
<glyph name="a.ss01" format="1">
  <advance width="614.76724"/>
  <outline>
    <contour>
      <point x="267" y="-10" type="curve" smooth="yes"/>
      <point x="343" y="-10"/>
      <point x="394" y="23"/>
      <point x="431" y="93" type="curve"/>
      <point x="452" y="93" type="line"/>
      <point x="452" y="47" type="line" smooth="yes"/>
      <point x="452" y="16"/>
      <point x="469" y="0"/>
      <point x="499" y="0" type="curve" smooth="yes"/>
      <point x="581" y="0" type="line"/>
      <point x="581" y="51" type="line"/>
      <point x="502" y="51" type="line"/>
      <point x="502" y="483" type="line"/>
      <point x="581" y="483" type="line"/>
      <point x="581" y="534" type="line"/>
      <point x="452" y="534" type="line"/>
      <point x="452" y="441" type="line"/>
      <point x="431" y="441" type="line"/>
      <point x="394" y="511"/>
      <point x="343" y="544"/>
      <point x="267" y="544" type="curve" smooth="yes"/>
      <point x="133" y="544"/>
      <point x="56" y="446"/>
      <point x="56" y="267" type="curve" smooth="yes"/>
      <point x="56" y="88"/>
      <point x="133" y="-10"/>
    </contour>
    <contour>
      <point x="281" y="45" type="curve" smooth="yes"/>
      <point x="171" y="45"/>
      <point x="122" y="107"/>
      <point x="122" y="245" type="curve" smooth="yes"/>
      <point x="122" y="289" type="line" smooth="yes"/>
      <point x="122" y="427"/>
      <point x="171" y="489"/>
      <point x="281" y="489" type="curve" smooth="yes"/>
      <point x="391" y="489"/>
      <point x="440" y="427"/>
      <point x="440" y="289" type="curve" smooth="yes"/>
      <point x="440" y="245" type="line" smooth="yes"/>
      <point x="440" y="107"/>
      <point x="391" y="45"/>
    </contour>
    <contour>
      <point x="581" y="0" type="move" name="ogonek"/>
    </contour>
    <contour>
      <point x="281" y="534" type="move" name="top"/>
    </contour>
  </outline>
</glyph>
<glyph name="acutecomb.case" format="1">
  <advance width="0"/>
  <note>
acute
</note>
  <outline>
    <component base="acutecomb" yOffset="116" identifier="83BA5D93"/>
    <contour>
      <point x="200" y="650" type="move" name="_top"/>
    </contour>
  </outline>
</glyph>
<glyph name="dragon.VF" format="1">
  <advance width="600"/>
  <outline>
    <contour>
      <point x="352" y="437" type="line"/>
      <point x="600" y="521" type="line"/>
      <point x="574" y="600" type="line"/>
      <point x="398" y="600" type="line"/>
      <point x="406" y="595" type="line"/>
      <point x="465" y="740" type="line"/>
      <point x="422" y="801" type="line"/>
      <point x="269" y="682" type="line"/>
      <point x="296" y="645" type="line"/>
      <point x="423" y="755" type="line"/>
      <point x="414" y="750" type="line"/>
      <point x="346" y="606" type="line"/>
      <point x="366" y="562" type="line"/>
      <point x="552" y="560" type="line"/>
      <point x="552" y="560" type="line"/>
      <point x="332" y="485" type="line"/>
    </contour>
    <contour>
      <point x="10" y="36" type="curve"/>
      <point x="10" y="-20" type="line"/>
      <point x="159" y="-20"/>
      <point x="288" y="34"/>
      <point x="288" y="198" type="curve"/>
      <point x="234" y="198" type="line"/>
      <point x="234" y="74"/>
      <point x="134" y="36"/>
    </contour>
    <contour>
      <point x="278" y="0" type="line"/>
      <point x="578" y="0" type="line"/>
      <point x="578" y="50" type="line"/>
      <point x="278" y="50" type="line"/>
    </contour>
    <contour>
      <point x="234" y="198" type="line"/>
      <point x="288" y="198" type="line"/>
      <point x="288" y="333" type="line"/>
      <point x="234" y="333" type="line"/>
    </contour>
    <contour>
      <point x="338" y="211" type="line"/>
      <point x="453" y="211" type="line"/>
      <point x="453" y="261" type="line"/>
      <point x="338" y="261" type="line"/>
    </contour>
    <contour>
      <point x="210" y="333" type="line"/>
      <point x="264" y="333" type="line"/>
      <point x="264" y="387" type="line"/>
      <point x="210" y="387" type="line"/>
    </contour>
    <contour>
      <point x="453" y="180" type="line"/>
      <point x="503" y="180" type="line"/>
      <point x="503" y="230" type="line"/>
      <point x="453" y="230" type="line"/>
    </contour>
    <contour>
      <point x="338" y="296" type="line"/>
      <point x="453" y="296" type="line"/>
      <point x="453" y="346" type="line"/>
      <point x="338" y="346" type="line"/>
    </contour>
    <contour>
      <point x="183" y="387" type="line"/>
      <point x="237" y="387" type="line"/>
      <point x="237" y="562" type="line"/>
      <point x="183" y="562" type="line"/>
    </contour>
    <contour>
      <point x="453" y="266" type="line"/>
      <point x="503" y="266" type="line"/>
      <point x="503" y="316" type="line"/>
      <point x="453" y="316" type="line"/>
    </contour>
    <contour>
      <point x="154" y="562" type="line"/>
      <point x="208" y="562" type="line"/>
      <point x="208" y="650" type="line"/>
      <point x="154" y="650" type="line"/>
    </contour>
    <contour>
      <point x="287" y="583" type="line"/>
      <point x="322" y="610" type="line"/>
      <point x="296" y="645" type="line"/>
      <point x="261" y="619" type="line"/>
    </contour>
    <contour>
      <point x="465" y="697" type="line"/>
      <point x="504" y="660" type="line"/>
      <point x="504" y="660" type="line"/>
      <point x="465" y="697" type="line"/>
    </contour>
    <contour>
      <point x="446" y="753" type="line"/>
      <point x="500" y="753" type="line"/>
      <point x="500" y="753" type="line"/>
      <point x="446" y="753" type="line"/>
    </contour>
    <contour>
      <point x="568" y="654" type="line"/>
      <point x="568" y="600" type="line"/>
      <point x="568" y="600" type="line"/>
      <point x="568" y="654" type="line"/>
    </contour>
  </outline>
</glyph>
<glyph name="exclamdown.case" format="1">
  <advance width="261.53448"/>
  <outline>
    <contour>
      <point x="149" y="521" type="line"/>
      <point x="112" y="521" type="line"/>
      <point x="96" y="53" type="line"/>
      <point x="96" y="0" type="line"/>
      <point x="165" y="0" type="line"/>
      <point x="165" y="53" type="line"/>
    </contour>
    <contour>
      <point x="172" y="690" type="line"/>
      <point x="89" y="690" type="line"/>
      <point x="89" y="610" type="line"/>
      <point x="172" y="610" type="line"/>
    </contour>
  </outline>
</glyph>
<glyph name="f_f_i" format="1">
  <advance width="1025.2069"/>
  <outline>
    <contour>
      <point x="138" y="643" type="curve" smooth="yes"/>
      <point x="138" y="0" type="line"/>
      <point x="199" y="0" type="line"/>
      <point x="199" y="639" type="line"/>
      <point x="349" y="639" type="line"/>
      <point x="349" y="690" type="line"/>
      <point x="184" y="690" type="line" smooth="yes"/>
      <point x="154" y="690"/>
      <point x="138" y="674"/>
    </contour>
    <contour>
      <point x="39" y="0" type="line"/>
      <point x="334" y="0" type="line"/>
      <point x="334" y="51" type="line"/>
      <point x="39" y="51" type="line"/>
    </contour>
    <contour>
      <point x="32" y="483" type="line"/>
      <point x="349" y="483" type="line"/>
      <point x="349" y="534" type="line"/>
      <point x="32" y="534" type="line"/>
    </contour>
    <contour>
      <point x="514" y="643" type="curve" smooth="yes"/>
      <point x="514" y="0" type="line"/>
      <point x="576" y="0" type="line"/>
      <point x="576" y="639" type="line"/>
      <point x="726" y="639" type="line"/>
      <point x="726" y="690" type="line"/>
      <point x="561" y="690" type="line" smooth="yes"/>
      <point x="531" y="690"/>
      <point x="514" y="674"/>
    </contour>
    <contour>
      <point x="416" y="0" type="line"/>
      <point x="711" y="0" type="line"/>
      <point x="711" y="51" type="line"/>
      <point x="416" y="51" type="line"/>
    </contour>
    <contour>
      <point x="409" y="483" type="line"/>
      <point x="726" y="483" type="line"/>
      <point x="726" y="534" type="line"/>
      <point x="409" y="534" type="line"/>
    </contour>
    <contour>
      <point x="872" y="0" type="line"/>
      <point x="933" y="0" type="line"/>
      <point x="933" y="534" type="line"/>
      <point x="777" y="534" type="line"/>
      <point x="777" y="483" type="line"/>
      <point x="872" y="483" type="line"/>
    </contour>
    <contour>
      <point x="860" y="615" type="line"/>
      <point x="941" y="615" type="line"/>
      <point x="941" y="690" type="line"/>
      <point x="860" y="690" type="line"/>
    </contour>
    <contour>
      <point x="692" y="534" type="line"/>
      <point x="692" y="483" type="line"/>
      <point x="800" y="483" type="line"/>
      <point x="800" y="534" type="line"/>
    </contour>
    <contour>
      <point x="257" y="483" type="line"/>
      <point x="459" y="483" type="line"/>
      <point x="459" y="534" type="line"/>
      <point x="257" y="534" type="line"/>
    </contour>
  </outline>
</glyph>
<glyph name="f_f_j" format="1">
  <advance width="1025.2069"/>
  <outline>
    <contour>
      <point x="138" y="643" type="curve" smooth="yes"/>
      <point x="138" y="0" type="line"/>
      <point x="199" y="0" type="line"/>
      <point x="199" y="639" type="line"/>
      <point x="349" y="639" type="line"/>
      <point x="349" y="690" type="line"/>
      <point x="184" y="690" type="line" smooth="yes"/>
      <point x="154" y="690"/>
      <point x="138" y="674"/>
    </contour>
    <contour>
      <point x="39" y="0" type="line"/>
      <point x="334" y="0" type="line"/>
      <point x="334" y="51" type="line"/>
      <point x="39" y="51" type="line"/>
    </contour>
    <contour>
      <point x="32" y="483" type="line"/>
      <point x="349" y="483" type="line"/>
      <point x="349" y="534" type="line"/>
      <point x="32" y="534" type="line"/>
    </contour>
    <contour>
      <point x="514" y="643" type="curve" smooth="yes"/>
      <point x="514" y="0" type="line"/>
      <point x="576" y="0" type="line"/>
      <point x="576" y="639" type="line"/>
      <point x="726" y="639" type="line"/>
      <point x="726" y="690" type="line"/>
      <point x="561" y="690" type="line" smooth="yes"/>
      <point x="531" y="690"/>
      <point x="514" y="674"/>
    </contour>
    <contour>
      <point x="416" y="0" type="line"/>
      <point x="711" y="0" type="line"/>
      <point x="711" y="51" type="line"/>
      <point x="416" y="51" type="line"/>
    </contour>
    <contour>
      <point x="409" y="483" type="line"/>
      <point x="726" y="483" type="line"/>
      <point x="726" y="534" type="line"/>
      <point x="409" y="534" type="line"/>
    </contour>
    <contour>
      <point x="771" y="-132" type="line"/>
      <point x="887" y="-132" type="line" smooth="yes"/>
      <point x="917" y="-132"/>
      <point x="933" y="-116"/>
      <point x="933" y="-85" type="curve" smooth="yes"/>
      <point x="933" y="534" type="line"/>
      <point x="777" y="534" type="line"/>
      <point x="777" y="483" type="line"/>
      <point x="872" y="483" type="line"/>
      <point x="872" y="-81" type="line"/>
      <point x="771" y="-81" type="line"/>
    </contour>
    <contour>
      <point x="860" y="615" type="line"/>
      <point x="941" y="615" type="line"/>
      <point x="941" y="690" type="line"/>
      <point x="860" y="690" type="line"/>
    </contour>
    <contour>
      <point x="692" y="534" type="line"/>
      <point x="692" y="483" type="line"/>
      <point x="800" y="483" type="line"/>
      <point x="800" y="534" type="line"/>
    </contour>
    <contour>
      <point x="261" y="483" type="line"/>
      <point x="462" y="483" type="line"/>
      <point x="462" y="534" type="line"/>
      <point x="261" y="534" type="line"/>
    </contour>
  </outline>
</glyph>
<glyph name="g.ss02" format="1">
  <advance width="607.93103"/>
  <outline>
    <contour>
      <point x="290" y="-142" type="curve" smooth="yes"/>
      <point x="429" y="-142"/>
      <point x="507" y="-75"/>
      <point x="507" y="43" type="curve" smooth="yes"/>
      <point x="507" y="483" type="line"/>
      <point x="586" y="483" type="line"/>
      <point x="586" y="534" type="line"/>
      <point x="457" y="534" type="line"/>
      <point x="457" y="439" type="line"/>
      <point x="436" y="439" type="line"/>
      <point x="406" y="509"/>
      <point x="350" y="544"/>
      <point x="270" y="544" type="curve" smooth="yes"/>
      <point x="135" y="544"/>
      <point x="55" y="446"/>
      <point x="55" y="291" type="curve" smooth="yes"/>
      <point x="55" y="139"/>
      <point x="135" y="40"/>
      <point x="270" y="40" type="curve" smooth="yes"/>
      <point x="349" y="40"/>
      <point x="405" y="71"/>
      <point x="435" y="134" type="curve"/>
      <point x="455" y="134" type="line"/>
      <point x="450" y="93"/>
      <point x="448" y="71"/>
      <point x="448" y="48" type="curve" smooth="yes"/>
      <point x="444" y="-43"/>
      <point x="390" y="-87"/>
      <point x="286" y="-87" type="curve" smooth="yes"/>
      <point x="198" y="-87"/>
      <point x="143" y="-50"/>
      <point x="143" y="-7" type="curve"/>
      <point x="143" y="-7" type="line"/>
      <point x="81" y="-7" type="line"/>
      <point x="104" y="-95"/>
      <point x="176" y="-142"/>
    </contour>
    <contour>
      <point x="288" y="93" type="curve" smooth="yes"/>
      <point x="174" y="93"/>
      <point x="121" y="155"/>
      <point x="121" y="277" type="curve" smooth="yes"/>
      <point x="121" y="305" type="line" smooth="yes"/>
      <point x="121" y="427"/>
      <point x="174" y="489"/>
      <point x="288" y="489" type="curve" smooth="yes"/>
      <point x="396" y="489"/>
      <point x="445" y="427"/>
      <point x="445" y="305" type="curve" smooth="yes"/>
      <point x="445" y="277" type="line" smooth="yes"/>
      <point x="445" y="155"/>
      <point x="396" y="93"/>
    </contour>
  </outline>
</glyph>
<glyph name="questiondown.case" format="1">
  <advance width="543.34483"/>
  <outline>
    <contour>
      <point x="311" y="434" type="curve" smooth="yes"/>
      <point x="308" y="521" type="line"/>
      <point x="271" y="521" type="line"/>
      <point x="268" y="452" type="line" smooth="yes"/>
      <point x="266" y="412"/>
      <point x="245" y="387"/>
      <point x="198" y="370" type="curve" smooth="yes"/>
      <point x="91" y="335"/>
      <point x="48" y="278"/>
      <point x="48" y="187" type="curve" smooth="yes"/>
      <point x="48" y="177" type="line" smooth="yes"/>
      <point x="48" y="58"/>
      <point x="130" y="-10"/>
      <point x="274" y="-10" type="curve" smooth="yes"/>
      <point x="414" y="-10"/>
      <point x="486" y="57"/>
      <point x="504" y="217" type="curve"/>
      <point x="439" y="217" type="line"/>
      <point x="439" y="209" type="line" smooth="yes"/>
      <point x="439" y="104"/>
      <point x="385" y="46"/>
      <point x="274" y="46" type="curve" smooth="yes"/>
      <point x="172" y="46"/>
      <point x="111" y="91"/>
      <point x="111" y="174" type="curve" smooth="yes"/>
      <point x="111" y="189" type="line" smooth="yes"/>
      <point x="111" y="249"/>
      <point x="142" y="288"/>
      <point x="225" y="317" type="curve" smooth="yes"/>
      <point x="287" y="342"/>
      <point x="313" y="376"/>
    </contour>
    <contour>
      <point x="331" y="690" type="line"/>
      <point x="248" y="690" type="line"/>
      <point x="248" y="610" type="line"/>
      <point x="331" y="610" type="line"/>
    </contour>
  </outline>
</glyph>
<glyph name="zero.zero" format="1">
  <advance width="660.18966"/>
  <outline>
    <contour>
      <point x="330" y="-10" type="curve" smooth="yes"/>
      <point x="507" y="-10"/>
      <point x="596" y="101"/>
      <point x="596" y="345" type="curve" smooth="yes"/>
      <point x="596" y="589"/>
      <point x="507" y="700"/>
      <point x="330" y="700" type="curve" smooth="yes"/>
      <point x="153" y="700"/>
      <point x="64" y="589"/>
      <point x="64" y="345" type="curve" smooth="yes"/>
      <point x="64" y="101"/>
      <point x="153" y="-10"/>
    </contour>
    <contour>
      <point x="330" y="47" type="curve" smooth="yes"/>
      <point x="196" y="47"/>
      <point x="132" y="121"/>
      <point x="132" y="282" type="curve" smooth="yes"/>
      <point x="132" y="408" type="line" smooth="yes"/>
      <point x="132" y="569"/>
      <point x="196" y="643"/>
      <point x="330" y="643" type="curve" smooth="yes"/>
      <point x="465" y="643"/>
      <point x="528" y="569"/>
      <point x="528" y="408" type="curve" smooth="yes"/>
      <point x="528" y="282" type="line" smooth="yes"/>
      <point x="528" y="121"/>
      <point x="465" y="47"/>
    </contour>
  </outline>
</glyph>
